<svg width="24" height="24" viewBox="0 0 24 24" fill="none" xmlns="http://www.w3.org/2000/svg">
<path d="M9.71018 2.136C9.57697 1.99948 9.41779 1.89098 9.24201 1.81691C9.06624 1.74283 8.87742 1.70467 8.68668 1.70467C8.49593 1.70467 8.30712 1.74283 8.13134 1.81691C7.95557 1.89098 7.79639 1.99948 7.66318 2.136H7.65618C7.3843 2.41447 7.23305 2.78882 7.23518 3.178C7.23518 3.588 7.39618 3.955 7.65718 4.217L7.66418 4.224C7.92118 4.488 8.28018 4.65 8.68318 4.65C9.08718 4.65 9.44918 4.488 9.71018 4.224L9.71318 4.217C9.97418 3.955 10.1342 3.588 10.1342 3.178C10.1342 2.77 9.97518 2.401 9.71318 2.136H9.71018ZM8.68318 22.295C9.08718 22.295 9.44918 22.128 9.71018 21.866L9.71318 21.858C9.97418 21.597 10.1342 21.227 10.1342 20.822C10.1342 20.412 9.97518 20.044 9.71318 19.778H9.71018C9.57696 19.6405 9.41731 19.5313 9.24082 19.4571C9.06433 19.3828 8.87464 19.345 8.68318 19.346C8.49272 19.3448 8.30402 19.3825 8.12863 19.4568C7.95325 19.5311 7.79487 19.6404 7.66318 19.778H7.65618C7.39618 20.044 7.23418 20.412 7.23418 20.822C7.23418 21.228 7.39518 21.597 7.65618 21.858L7.66318 21.866C7.92118 22.128 8.28018 22.295 8.68318 22.295V22.295ZM16.5732 17.833C16.9322 17.737 17.2562 17.503 17.4552 17.149L17.4822 17.097C17.6533 16.7684 17.694 16.3873 17.5962 16.03C17.5486 15.8434 17.4644 15.6681 17.3486 15.5143C17.2327 15.3605 17.0874 15.2312 16.9212 15.134L16.9002 15.12C16.5724 14.9354 16.1848 14.888 15.8222 14.988C15.4622 15.079 15.1382 15.323 14.9412 15.674C14.7412 16.023 14.7002 16.424 14.7952 16.793C14.8942 17.156 15.1252 17.484 15.4702 17.689H15.4722C15.8182 17.892 16.2092 17.928 16.5732 17.833V17.833ZM10.1682 10.491C9.97472 10.2931 9.74376 10.1357 9.48879 10.028C9.23381 9.92038 8.95994 9.86461 8.68318 9.864C8.10318 9.864 7.58018 10.106 7.20118 10.491C6.82318 10.876 6.58918 11.407 6.58918 11.998C6.58918 12.589 6.82218 13.122 7.20118 13.512C7.39477 13.709 7.62565 13.8654 7.88036 13.9722C8.13506 14.079 8.40849 14.134 8.68468 14.134C8.96087 14.134 9.23429 14.079 9.489 13.9722C9.7437 13.8654 9.97459 13.709 10.1682 13.512C10.5472 13.122 10.7802 12.589 10.7802 11.998C10.7802 11.407 10.5472 10.876 10.1682 10.491ZM9.33318 7.981C10.1762 8.122 10.9332 8.533 11.5112 9.125H11.5152C11.6072 9.218 11.6972 9.321 11.7802 9.424L13.2262 8.573C13.0356 7.98762 13.0193 7.35949 13.1792 6.765C13.2832 6.36397 13.4654 5.98741 13.7153 5.65691C13.9651 5.32641 14.2777 5.04847 14.6352 4.839L14.6602 4.823C15.0112 4.61908 15.3994 4.48701 15.8019 4.43448C16.2045 4.38194 16.6135 4.40999 17.0052 4.517C17.7752 4.727 18.4702 5.238 18.9032 5.999V6.001C19.3342 6.758 19.4212 7.627 19.2162 8.409C19.1126 8.81048 18.9306 9.18751 18.6807 9.51839C18.4308 9.84927 18.118 10.1275 17.7602 10.337L17.5622 10.455H17.5422C16.8717 10.7789 16.107 10.8503 15.3882 10.656C14.8025 10.495 14.2765 10.167 13.8742 9.712L12.4302 10.56C12.7727 11.4891 12.7727 12.5099 12.4302 13.439L13.8742 14.285C14.2872 13.815 14.8132 13.496 15.3882 13.341C15.7844 13.2311 16.1988 13.2027 16.6064 13.2575C17.0139 13.3124 17.4061 13.4493 17.7592 13.66L17.8072 13.683V13.685C18.5053 14.1144 19.0099 14.7975 19.2152 15.591C19.4288 16.4028 19.3165 17.2659 18.9022 17.996L18.8762 18.049L18.8732 18.044C18.4602 18.7463 17.7909 19.2611 17.0062 19.48C16.6096 19.5869 16.1958 19.6138 15.7887 19.5593C15.3817 19.5047 14.9895 19.3696 14.6352 19.162V19.156C13.9135 18.7321 13.3898 18.039 13.1792 17.229C13.0198 16.6355 13.0362 16.0084 13.2262 15.424L11.7802 14.576C11.6969 14.6784 11.6084 14.7765 11.5152 14.87L11.5112 14.875C10.9251 15.4769 10.162 15.8757 9.33318 16.013V17.712C9.92656 17.8399 10.4691 18.1397 10.8932 18.574L10.8952 18.578C11.4602 19.15 11.8092 19.946 11.8092 20.821C11.8092 21.694 11.4592 22.485 10.8952 23.06L10.8932 23.069C10.6051 23.3632 10.2613 23.597 9.88185 23.7569C9.5024 23.9167 9.09492 23.9994 8.68318 24C8.27218 23.999 7.8655 23.9162 7.48678 23.7565C7.10806 23.5969 6.76487 23.3635 6.47718 23.07H6.47518V23.061C5.88735 22.4641 5.55827 21.6597 5.55918 20.822C5.55918 19.947 5.90918 19.15 6.47518 18.579V18.575H6.47718C6.90104 18.1415 7.44272 17.8418 8.03518 17.713V16.014C7.20682 15.8771 6.44417 15.4782 5.85918 14.876L5.85318 14.871C5.10043 14.1039 4.67918 13.0718 4.68018 11.997C4.68018 10.875 5.13218 9.861 5.85318 9.125H5.85918C6.44423 8.52174 7.20655 8.12096 8.03518 7.981V6.289C7.44326 6.15762 6.9021 5.85751 6.47718 5.425H6.47518V5.421C5.88693 4.82277 5.55787 4.01699 5.55918 3.178C5.55918 2.307 5.90918 1.509 6.47518 0.935L6.47718 0.933C6.76408 0.638225 7.10705 0.403823 7.4859 0.243592C7.86475 0.083361 8.27183 0.00053854 8.68318 0C9.54418 0 10.3242 0.355 10.8932 0.932V0.934H10.8952C11.4602 1.508 11.8092 2.306 11.8092 3.177C11.8092 4.053 11.4592 4.844 10.8952 5.42L10.8932 5.425C10.4675 5.85762 9.92571 6.15771 9.33318 6.289V7.981V7.981ZM17.4542 6.852L17.4422 6.833C17.2507 6.50515 16.9384 6.26535 16.5722 6.165C16.3879 6.1144 16.1953 6.10125 16.0059 6.12633C15.8164 6.1514 15.6339 6.2142 15.4692 6.311H15.4712C15.1242 6.511 14.8912 6.84 14.7942 7.207C14.6992 7.572 14.7402 7.975 14.9402 8.326L14.9472 8.335C15.1472 8.682 15.4662 8.914 15.8212 9.008C16.1782 9.111 16.5762 9.067 16.9192 8.864L16.9382 8.855C17.2637 8.65638 17.4992 8.33905 17.5952 7.97C17.696 7.59322 17.6454 7.19194 17.4542 6.852" fill="white"/>
</svg>
