<svg width="24" height="24" viewBox="0 0 24 24" fill="none" xmlns="http://www.w3.org/2000/svg">
<path d="M5.90198 0.258057C5.57098 0.474057 5.25198 0.783057 4.90798 1.13506C4.33898 1.72406 3.96098 2.29906 3.38198 2.72506C3.26598 2.82506 2.94098 2.98506 2.53198 3.00906C2.33998 3.01906 2.21398 3.05106 1.85998 3.00606C1.54798 2.83706 1.25198 2.94706 0.962977 3.29306C0.645977 3.74906 0.242977 4.61506 0.0769766 5.16106C-0.268023 6.55106 0.609977 7.69706 1.45198 8.58106C2.20098 9.31106 2.63198 9.76906 2.93998 10.4401C3.17298 10.8751 3.34498 11.4721 3.53198 11.8901C3.59898 12.0231 3.58498 12.0221 3.76698 12.0621C4.15698 12.1461 4.70098 12.1461 5.18398 12.1881C5.39298 12.1911 5.67998 12.1831 5.95198 12.1551C6.32698 12.0841 6.76698 12.0151 7.13698 11.8871C7.49698 11.7971 7.81898 11.6751 8.10798 11.5621C8.07098 11.6881 7.79498 11.8111 7.69198 11.9721C6.72998 13.3481 6.45198 14.5771 6.60198 16.4821L6.59398 16.4751L6.60498 16.5251L6.61098 16.6021C6.70798 17.4761 6.90898 18.2021 7.21098 19.0321C7.39642 19.518 7.63699 19.981 7.92798 20.4121C7.99998 20.5131 8.07998 20.6171 8.16598 20.7221H8.16398L8.16898 20.7261C9.09898 21.8561 10.875 23.1761 13.267 23.7121C13.724 23.7741 14.242 23.7411 14.73 23.6121C16.022 23.2201 18.655 22.2931 18.655 22.2931C18.655 22.2931 16.318 22.4871 15.247 22.3811C14.999 22.3421 14.727 22.3291 14.554 22.1601C14.524 22.1231 14.419 21.9101 14.487 21.9091C14.58 21.9061 14.847 21.7961 15.257 21.7591C14.38 21.6651 14.392 21.6661 14.328 21.5061C14.2061 21.2049 14.0696 20.9099 13.919 20.6221C14.305 20.6551 15.159 20.7021 15.448 20.4041C15.448 20.4041 14.943 20.4621 14.497 20.4101C14.3318 20.3792 14.1698 20.3334 14.013 20.2731C13.813 20.1941 13.648 20.1701 13.609 20.1191C13.539 19.9421 13.493 19.8831 13.409 19.6461C13.295 19.3311 13.286 18.9811 13.264 18.6601C13.556 19.0201 13.928 19.3231 14.421 19.4781C14.427 19.4651 15.059 19.7531 15.519 19.6051L15.607 19.5761C15.562 19.5851 15.3 19.5961 15.198 19.5461C14.264 19.1481 14.123 18.8011 13.972 18.6281L13.569 18.0241C13.692 17.7791 13.761 17.7701 13.924 17.7681C14.415 17.8221 14.629 17.8641 14.928 17.7921C15.131 18.2081 15.185 18.6271 15.646 18.9291C17.179 19.3851 17.512 18.7941 17.883 18.2731C18.987 19.0831 20.783 19.3321 22.03 18.2871C23.616 16.4521 24.118 13.5591 23.977 13.3941C23.779 13.0581 23.52 12.7111 23.297 12.7591C22.501 12.9761 22.207 13.3791 21.42 13.2881C21.514 13.2821 21.672 13.2801 21.673 13.2711C21.733 12.6041 21.668 12.2811 21.639 12.2251C21.399 11.6981 21.085 11.1431 20.867 10.7271C20.81 10.6411 20.644 9.98506 20.367 9.72706C20.247 9.62506 19.957 9.35706 19.957 9.35706L19.931 9.64206C19.931 9.64206 20.045 9.65906 20.089 9.83506C20.168 10.1571 20.402 10.6891 20.631 11.1651H20.261L20.685 11.2751C20.913 11.7401 21.122 12.1271 21.152 12.1631C21.345 12.4751 21.3 12.8361 21.307 13.1431L21.197 13.1981C21.18 12.8371 20.792 12.8631 20.465 12.8601L20.197 12.7941C20.279 12.8701 20.531 12.8641 20.429 13.0271C20.343 13.0731 20.304 13.2691 20.255 13.4341L20.11 13.4411C20.366 13.5411 20.604 13.6291 20.886 13.7471L21.028 13.7681L20.886 14.1251L20.693 14.0471L20.686 13.9121C20.346 13.7761 19.691 13.7191 19.667 13.7471C19.425 13.9841 19.249 14.2711 19.058 14.5471C19.32 14.3431 19.518 14.0351 19.871 13.9501C19.899 13.9471 20.249 14.0151 20.439 14.0481C20.317 14.0731 20.119 14.0821 20.089 14.1251C19.82 14.4571 19.623 14.8611 19.392 15.2301C19.711 14.9011 19.808 14.5641 20.349 14.2451C20.394 14.2151 20.724 14.2221 20.885 14.3031C20.834 14.4861 20.718 14.7041 20.625 14.9101C20.492 15.2231 20.239 15.5111 20.045 15.8121C20.653 15.0721 20.48 15.3431 20.886 14.8661C21.056 14.4621 21.226 14.0261 21.383 13.5951L21.413 13.5791C21.467 13.6121 21.883 13.5711 22.208 13.5911C22.767 13.4711 22.743 13.2241 23.226 13.1871C23.551 13.1621 23.584 13.7731 23.579 13.8211C23.5 14.5715 23.3043 15.305 22.999 15.9951C22.347 17.2531 21.616 18.3831 20.579 18.5401C19.314 18.7611 18.657 18.2081 17.971 17.8561L17.709 18.0801C16.818 18.9671 15.76 18.8881 15.327 17.7291L15.324 17.7231C15.2954 17.6637 15.2647 17.6053 15.232 17.5481C15.105 17.3021 14.982 17.0531 14.83 16.8241C13.492 15.7661 14.11 14.8021 14.466 14.1921C13.722 14.0041 12.736 13.6041 12.6 13.0791C12.381 11.3791 12.492 10.8391 12.71 9.96606C11.714 10.1761 10.704 10.3851 9.63298 10.7421L9.63198 10.7341C9.34598 10.7981 8.38598 11.1501 8.11398 11.2971C7.49698 11.4761 6.98398 11.6631 6.19698 11.8601C5.94693 11.8917 5.69385 11.8911 5.44398 11.8581C4.87798 11.7811 3.91298 11.8501 3.85098 11.7931C3.46798 11.2581 3.36298 10.3001 3.01298 9.78706L3.00898 9.78206L3.00398 9.77806C2.80098 9.50306 2.56298 9.28006 2.32898 9.04806C1.48998 8.21306 0.772977 7.40706 0.571977 6.55406C0.521977 6.30206 0.391977 6.04106 0.459977 5.29606L0.461977 5.29206L0.462977 5.28906C0.664977 4.59206 0.992977 4.02406 1.54998 3.45506C2.12998 3.46506 2.70298 3.47706 3.14998 3.56306C3.35498 3.59706 3.78098 3.65306 4.22098 3.81706C5.33598 4.23206 6.80798 4.91406 6.80798 4.91406C5.70298 4.30706 4.46798 3.51906 3.68698 3.36006C3.56998 3.34306 3.49898 3.29006 3.46498 3.19806C4.63798 2.50806 4.85298 1.69606 5.62498 0.968057C5.97798 0.814057 6.11498 0.736057 6.41498 0.703057C9.18898 1.14206 10.935 2.24606 12.315 2.98506C12.875 3.28906 13.385 3.52006 13.872 3.79706C14.298 3.93706 15.585 4.91006 15.962 5.43406C16.345 6.24106 16.624 7.11406 16.879 7.95606C17.062 8.81306 17.222 9.16006 17.222 9.16006C17.222 9.16006 17.067 8.44406 17.092 8.31506C17.254 8.37506 17.634 8.49506 17.792 8.47506C17.792 8.47506 17.087 8.11106 16.995 7.78906C16.699 6.75606 16.401 5.14806 16.321 5.06406C16.095 4.78006 15.153 4.05906 14.575 3.72506C14.357 3.59906 14.239 3.52106 14.23 3.46506C14.414 3.27906 14.642 3.03206 14.847 2.87506C15.042 2.72506 15.221 2.55506 15.494 2.45506C16.694 1.91406 17.38 2.66206 17.544 2.51106C17.544 2.51106 17.285 2.21506 17.4 2.26406C17.517 2.32706 17.9 2.40206 17.942 2.44106C18.379 2.78306 19.523 4.03406 20.212 5.35406C20.378 5.67706 20.445 5.89006 20.368 6.27906C20.291 6.66906 20.232 6.88306 20.148 7.14306C20.072 7.31706 19.643 8.50806 19.645 8.66806C19.558 9.32106 19.925 10.1391 19.925 10.1391C19.928 9.91706 19.911 9.79906 19.931 9.64006L19.956 9.35606C19.956 9.35606 19.94 9.28106 19.943 9.25106C19.962 9.05506 20.01 8.89006 20.024 8.77706C20.162 7.92406 20.401 7.31006 20.674 6.56106C20.754 6.37206 20.859 6.26706 20.854 6.12306C20.859 5.86806 20.63 5.52506 20.465 5.19006C20.2795 4.80659 20.0701 4.43519 19.838 4.07806C19.242 3.22106 18.735 2.55106 17.805 2.13106C17.545 2.01706 16.521 1.90506 16.167 1.97106C15.738 2.06106 15.37 2.14906 15.075 2.33806C14.613 2.63406 14.249 3.09306 13.823 3.36306C12.879 2.89106 12.423 2.53806 12.339 2.48906C11.778 2.18906 11.105 1.84006 10.381 1.50906C10.033 1.18806 7.87698 0.413057 5.90198 0.259057V0.258057ZM15.607 19.5761C15.611 19.5761 15.614 19.5751 15.614 19.5741L15.607 19.5761ZM17.564 3.31406C17.614 3.57406 17.655 3.83106 17.851 4.15806C18.271 4.62106 18.422 4.94806 18.481 5.09306C18.686 5.61906 18.85 6.14506 19 6.67106C18.95 6.12306 18.763 5.53506 18.687 5.01106C18.644 4.77106 17.733 3.33106 17.564 3.31406V3.31406ZM10.486 5.82406C11.537 6.09106 13.095 6.09806 13.854 6.56706C13.865 6.60806 13.834 6.63506 13.788 6.65706C13.601 6.63106 13.416 6.58006 13.218 6.62706C12.928 6.72006 12.67 6.89606 12.396 7.03306C13.15 6.87906 13.361 7.06006 13.934 7.10806C14.554 7.34406 14.919 8.48306 15.328 8.80406C14.95 7.97706 14.711 6.74406 13.973 6.09006C13.056 5.79606 11.706 5.86406 10.486 5.82306V5.82406ZM17.473 10.7401C17.2486 10.7373 17.0245 10.7594 16.805 10.8061C16.645 11.0211 16.635 11.2391 16.565 11.4411C17.041 10.9161 17.23 10.8841 17.992 10.7751C17.8195 10.7532 17.6458 10.7415 17.472 10.7401H17.473ZM9.68598 11.1051C10.182 12.9651 11.202 14.8381 12.216 16.5451C12.606 17.0411 12.713 17.2631 13.303 17.5631C13.254 17.6661 13.2 17.7931 13.141 17.9391C12.009 17.3801 11.074 16.7071 10.133 16.0291C8.62098 14.9251 8.24298 13.6111 7.97798 11.8931C8.00936 11.8485 8.05038 11.8116 8.09798 11.7851C8.5791 11.4592 9.11812 11.2284 9.68598 11.1051V11.1051ZM17.871 12.2401C17.405 12.2381 17.02 12.4001 16.52 12.7221C16.52 12.7221 17.074 12.6421 17.064 12.6921C17.027 12.8671 17.112 13.2671 17.137 13.2941L17.143 13.2891C17.143 13.2951 17.14 13.2971 17.137 13.2941L16.831 13.5441C17.485 13.2151 18.172 13.2811 18.87 13.2311C18.87 13.2311 18.282 13.0691 18.318 13.0641C18.449 13.0451 18.283 12.4511 18.238 12.4381C18.348 12.4021 18.4594 12.3708 18.572 12.3441C18.3436 12.2799 18.1081 12.245 17.871 12.2401V12.2401ZM17.424 12.8031C17.518 12.8041 17.613 12.8311 17.644 12.8931C17.6746 12.978 17.6808 13.0698 17.662 13.1581C17.5915 13.1511 17.5203 13.1581 17.4525 13.1787C17.3847 13.1993 17.3217 13.233 17.267 13.2781C17.196 13.3481 17.144 12.9311 17.199 12.8661C17.233 12.8261 17.329 12.8021 17.424 12.8031V12.8031ZM20.441 13.1011C20.525 13.1001 20.697 13.1101 20.728 13.2211C20.748 13.2831 20.686 13.4911 20.656 13.5131C20.61 13.5361 20.3 13.5161 20.287 13.4521C20.261 13.3761 20.324 13.1461 20.395 13.1041L20.441 13.1011V13.1011ZM23.338 13.4851L22.785 13.7551C21.885 14.0391 21.831 13.7851 21.495 13.6891C21.717 13.9421 21.982 14.1311 22.453 14.0191C23.098 13.8231 23.12 13.6591 23.338 13.4851V13.4851ZM6.83898 14.1841C7.33898 15.5441 9.72598 18.0781 12.929 18.4621L12.921 18.4801C12.811 18.7461 12.719 19.2041 12.725 19.5841L12.719 19.5941C8.56398 18.7091 8.04898 17.6001 6.76798 16.6071C6.67498 15.8391 6.66298 15.0051 6.83898 14.1841V14.1841ZM16.281 16.0881C16.26 16.0881 16.248 16.0881 16.248 16.0911C15.952 16.3011 15.908 16.5031 15.914 16.6771C16.405 16.1941 16.387 16.1921 17.104 16.1971C16.8319 16.1451 16.5572 16.1087 16.281 16.0881V16.0881ZM16.577 16.4511C16.472 17.0181 16.09 17.4211 15.794 17.8191C15.735 17.9121 15.693 18.0391 15.983 18.4431C16.061 18.5511 16.343 18.5691 16.533 18.5591C16.34 18.4131 16.045 18.2581 15.997 18.1231C16.338 18.3561 16.654 18.4231 16.94 18.3851C17.005 18.3781 17.086 18.3081 17.149 18.2021C17.276 17.9281 17.376 17.8621 17.477 17.7891L17.709 18.0791L17.971 17.8561C17.39 17.4011 16.901 16.9331 16.577 16.4511V16.4511ZM7.29598 18.8711C8.75598 19.7491 11.11 20.7101 13.108 20.6621C13.308 21.0091 13.547 21.3731 13.741 21.6631C11.197 22.0501 9.43298 21.2721 8.35398 20.7431L8.23698 20.6251C7.89198 20.2341 7.56098 19.4911 7.29598 18.8701V18.8711ZM14.18 22.3271C14.28 22.5341 14.442 22.7061 14.453 22.7291C15.309 23.8451 13.374 23.5881 12.975 23.5201C12.265 23.4071 11.57 23.1291 10.91 22.7531C11.984 22.7321 13.118 22.8131 14.18 22.3271V22.3271Z" fill="white"/>
</svg>
