<svg width="24" height="24" viewBox="0 0 24 24" fill="none" xmlns="http://www.w3.org/2000/svg">
<path d="M10.8121 0C10.3871 0.013 9.96707 0.215 9.61607 0.605C9.42296 0.824702 9.2574 1.06716 9.12307 1.327C8.76807 1.994 8.69807 2.742 8.56707 3.47C8.31995 4.83142 8.07795 6.19376 7.84107 7.557C7.81407 7.717 7.74507 7.784 7.59707 7.83C5.83007 8.386 4.06007 8.94 2.30007 9.514C1.91307 9.639 1.52707 9.803 1.18607 10.02C0.144073 10.685 -0.00992712 11.773 0.771073 12.73C1.11707 13.152 1.56107 13.445 2.05507 13.666C3.15507 14.156 4.25707 14.642 5.35507 15.136C5.37407 15.146 5.39107 15.149 5.40807 15.155H5.40407L6.71007 15.69C6.71007 15.713 6.71207 15.735 6.71007 15.763C6.51007 17.793 6.32007 19.826 6.13007 21.858C6.09007 22.277 6.11807 22.689 6.26407 23.088C6.58107 23.958 7.32907 24.236 8.14507 23.789C8.51707 23.585 8.81107 23.292 9.08207 22.971C10.4541 21.348 11.8281 19.727 13.1951 18.099C13.3061 17.966 13.4001 17.949 13.5581 18.001C13.9071 18.118 14.2551 18.232 14.6031 18.348H14.6041C14.6241 18.36 14.6491 18.368 14.6771 18.378L14.8191 18.42C16.0671 18.836 17.4991 19.195 18.7481 19.61C19.1481 19.742 19.3701 19.774 19.7931 19.708C20.1041 19.66 20.3851 19.646 20.6211 19.472C21.2231 19.142 21.6161 18.515 21.6091 17.79C21.6041 17.363 21.4551 16.977 21.2591 16.604C20.4391 15.048 19.6221 13.491 18.7981 11.938C18.7201 11.79 18.7221 11.695 18.8351 11.563C20.2161 9.948 21.5911 8.327 22.9681 6.708C23.2401 6.388 23.4811 6.05 23.6211 5.65C23.9291 4.772 23.5311 4.08 22.6211 3.909C22.2094 3.83907 21.7874 3.86265 21.3861 3.978C19.4121 4.499 17.4391 5.019 15.4681 5.548C15.2931 5.595 15.2081 5.563 15.1131 5.404C14.315 4.05932 13.508 2.71996 12.6921 1.386C12.5084 1.07864 12.2896 0.793721 12.0401 0.537C11.6691 0.167 11.2381 -0.012 10.8131 0.001L10.8121 0ZM10.9841 3.703C11.0632 3.757 11.1281 3.82941 11.1731 3.914C12.0431 5.36 12.9151 6.804 13.7821 8.252C13.8521 8.37 13.9171 8.412 14.0591 8.373C15.5841 7.963 17.1111 7.56 18.6381 7.156C19.0051 7.058 19.3731 6.963 19.7411 6.867C19.7275 6.94184 19.6928 7.01123 19.6411 7.067C18.3821 8.547 17.1251 10.029 15.8621 11.505C15.7521 11.635 15.7421 11.725 15.8221 11.875C16.7591 13.678 17.5901 15.184 18.3201 16.635L14.6241 15.616C14.0861 15.436 13.5471 15.258 13.0091 15.077C12.8461 15.022 12.7591 15.047 12.6491 15.177C11.4011 16.665 10.1451 18.147 8.89007 19.631C8.84389 19.6913 8.78144 19.7371 8.71007 19.763C8.74507 19.385 8.77807 19.006 8.81407 18.627C8.96307 17.055 9.11107 15.483 9.26507 13.911C9.23507 13.593 9.38207 13.506 8.94307 13.366C7.45007 12.773 5.59707 12.045 4.12707 11.461C4.19552 11.3982 4.27771 11.3523 4.36707 11.327C6.16407 10.757 7.96207 10.187 9.76107 9.622C9.88807 9.582 9.96007 9.53 9.97207 9.389C9.98507 9.241 10.0221 9.095 10.0481 8.948C10.2891 7.585 10.5311 6.222 10.7741 4.86C10.8421 4.474 10.9141 4.089 10.9841 3.703V3.703Z" fill="white"/>
</svg>
