<svg width="19" height="24" viewBox="0 0 19 24" fill="none" xmlns="http://www.w3.org/2000/svg">
<path d="M8.46 0H12.384V18.166C10.371 18.548 8.893 18.701 7.288 18.701C2.497 18.701 0 16.535 0 12.381C0 8.379 2.65 5.781 6.753 5.781C7.39 5.781 7.874 5.831 8.46 5.984V0ZM8.46 9.143C8.03345 8.99891 7.58514 8.92989 7.135 8.939C5.147 8.939 4.001 10.162 4.001 12.304C4.001 14.394 5.097 15.54 7.11 15.54C7.543 15.54 7.9 15.515 8.46 15.438V9.142V9.143ZM18.628 6.06V15.158C18.628 18.292 18.399 19.796 17.711 21.095C17.074 22.344 16.233 23.134 14.5 24L10.856 22.267C12.589 21.452 13.43 20.737 13.965 19.642C14.526 18.521 14.704 17.221 14.704 13.807V6.059H18.628V6.06ZM14.704 0.021H18.628V4.047H14.704V0.021Z" fill="white"/>
</svg>
