<svg width="24" height="24" viewBox="0 0 24 24" fill="none" xmlns="http://www.w3.org/2000/svg">
<g clip-path="url(#clip0)">
<path d="M1.1 6.05005C0.486 6.05005 1.5881e-08 6.53005 1.5881e-08 7.13005C-2.45964e-05 7.27358 0.0285591 7.41567 0.0840806 7.54802C0.139602 7.68037 0.220948 7.80033 0.323363 7.90088C0.425778 8.00144 0.547208 8.08057 0.680557 8.13365C0.813906 8.18673 0.956498 8.21271 1.1 8.21005C1.72 8.21005 2.21 7.73005 2.21 7.13005C2.21 6.53005 1.72 6.05005 1.1 6.05005ZM8.71 6.07005C5.35 6.07005 3.25 8.36005 3.25 12C3.25 15.67 5.35 17.95 8.71 17.95C12.05 17.95 14.16 15.67 14.16 12C14.16 8.36005 12.05 6.07005 8.71 6.07005ZM19.55 6.07005C17.05 6.07005 15.27 7.45005 15.27 9.50005C15.27 11.13 16.28 12.15 18.4 12.64L19.89 13C21.34 13.33 21.93 13.81 21.93 14.64C21.93 15.6 20.96 16.28 19.58 16.28C18.17 16.28 17.11 15.59 17 14.53H15C15.08 16.65 16.82 17.95 19.46 17.95C22.25 17.95 24 16.58 24 14.4C24 12.69 23 11.72 20.68 11.19L19.35 10.89C17.94 10.55 17.36 10.1 17.36 9.34005C17.36 8.38005 18.24 7.74005 19.54 7.74005C20.85 7.74005 21.75 8.39005 21.85 9.46005H23.81C23.76 7.44005 22.09 6.07005 19.55 6.07005ZM8.71 7.82005C10.75 7.82005 12.06 9.45005 12.06 12C12.06 14.57 10.75 16.2 8.71 16.2C6.65 16.2 5.35 14.57 5.35 12C5.35 9.45005 6.65 7.82005 8.71 7.82005ZM0.111 9.31005V17.76H2.1V9.31005H0.11H0.111Z" fill="white"/>
</g>
<defs>
<clipPath id="clip0">
<rect width="24" height="24" fill="white"/>
</clipPath>
</defs>
</svg>
