<svg width="243" height="92" viewBox="0 0 243 92" fill="none" xmlns="http://www.w3.org/2000/svg">
<path d="M6.17983 90.4666C5.16024 90.7398 4.18661 90.5405 3.25894 89.8689C2.33126 89.1972 1.69488 88.2174 1.34979 86.9295C0.990318 85.5879 1.14924 83.8199 1.82656 81.6254C2.50387 79.4309 3.45862 77.3058 4.69079 75.2502C7.35541 71.0277 9.81887 67.6644 12.0812 65.1603L13.5285 63.4783C14.2864 62.8726 15.1216 62.4476 16.0338 62.2031C16.9997 61.9443 17.9446 62.0362 18.8684 62.4789C19.7779 62.8679 20.3404 63.4648 20.5561 64.2698C20.7718 65.0747 20.8318 65.8351 20.736 66.5509C20.6402 67.2668 20.4817 67.8557 20.2604 68.3176C19.7325 69.7819 19.4168 70.6429 19.3133 70.9007C19.1955 71.1048 19.1653 71.3142 19.2228 71.5289C19.266 71.6898 19.3948 71.7416 19.6095 71.6841C19.8778 71.6122 20.7962 70.5321 22.3648 68.4439C26.9735 62.0326 30.5658 58.4818 33.1416 57.7917C34.1612 57.5185 35.1061 57.6104 35.9763 58.0674C36.8857 58.4564 37.4411 59.0265 37.6424 59.7778C37.8437 60.5291 37.8624 61.243 37.6986 61.9195C37.5204 62.5424 37.2297 63.2818 36.8263 64.1376C36.1623 65.5233 35.8663 66.3503 35.9382 66.6186C35.9957 66.8333 36.2123 66.8903 36.5879 66.7896C37.0172 66.6746 38.4305 64.973 40.8279 61.685C43.2252 58.3969 45.0142 56.5947 46.1947 56.2784C47.3753 55.962 48.417 56.2006 49.3198 56.9939C50.2618 57.7193 50.8623 58.5649 51.1211 59.5308C51.3799 60.4968 50.6082 63.0904 48.8061 67.3118C46.9895 71.4795 46.1459 73.8049 46.2754 74.2878C46.4048 74.7708 46.6573 74.9619 47.0329 74.8613C47.3405 74.7214 47.673 74.4597 48.0304 74.0764C48.3878 73.693 48.7544 73.451 49.13 73.3504C49.8276 73.1635 50.2555 73.3651 50.4137 73.9554C50.8882 75.7263 50.3124 77.5485 48.6864 79.4221C47.0459 81.242 45.2061 82.4252 43.167 82.9716C38.8739 84.1219 36.2242 82.8188 35.2177 79.0625C35.0164 78.3112 34.9794 77.3146 35.1067 76.0726C35.2877 74.8163 35.555 73.882 35.9086 73.2696C35.9833 72.9045 36.0063 72.6683 35.9775 72.5609C35.9344 72.3999 35.8055 72.3482 35.5908 72.4057C35.4298 72.4489 35.2368 72.5869 35.0116 72.8197C34.772 72.999 33.8771 74.274 32.3268 76.645C28.0831 83.131 24.9149 86.6544 22.822 87.2151C21.6951 87.5171 20.7287 87.3447 19.9227 86.6979C19.1024 85.9975 18.57 85.1911 18.3255 84.2789C17.8798 82.6153 18.1958 80.5751 19.2737 78.1583C19.3628 77.8468 19.3786 77.5838 19.3211 77.3691C19.2492 77.1008 19.1059 76.9954 18.8912 77.0529C18.6766 77.1104 18.4639 77.2825 18.2531 77.569C12.4581 85.5635 8.43366 89.8627 6.17983 90.4666ZM76.5066 68.603C76.5785 68.8713 76.8167 69.0088 77.2211 69.0155C77.5967 68.9148 78.6833 67.8185 80.4809 65.7264C82.3177 63.5663 83.3487 62.3698 83.5739 62.1369C83.8527 61.8896 84.1263 61.73 84.3946 61.6582C85.1459 61.4569 85.6222 61.7318 85.8235 62.4831C86.0104 63.1807 84.5296 65.2742 81.381 68.7636C78.286 72.2386 75.9604 74.1846 74.4042 74.6016C73.7603 74.7741 72.9908 74.6927 72.0957 74.3574C71.2543 74.0077 70.7401 73.484 70.5532 72.7864C70.3519 72.0352 70.324 71.1799 70.4696 70.2206C70.6152 69.2614 70.652 68.6476 70.5801 68.3793C70.4939 68.0573 70.3702 67.9179 70.2092 67.961C70.0483 68.0042 69.9016 68.101 69.7694 68.2514C65.6138 73.5635 62.3018 76.5503 59.8333 77.2117C58.4381 77.5856 57.2014 77.3706 56.1232 76.5667C55.0451 75.7628 54.2889 74.8726 53.8548 73.8961L53.284 72.4099C52.8095 70.639 52.9339 68.4201 53.6571 65.7531C54.4197 63.0181 55.6207 60.3094 57.2601 57.6271C58.9387 54.8767 61.1938 52.3456 64.0253 50.034C66.9105 47.708 70.0435 46.0921 73.4242 45.1862C75.2488 44.6974 77.0685 44.7274 78.8836 45.2763C80.7523 45.8109 81.8592 46.7221 82.2043 48.01C82.5494 49.2979 81.4968 50.4139 79.0465 51.358C77.2834 52.2906 74.5879 54.6808 70.9602 58.5286C67.3718 62.3084 65.7645 64.8959 66.1383 66.2911C66.2965 66.8814 66.6707 67.0974 67.261 66.9393C68.3343 66.6517 70.4466 64.4465 73.598 60.3237C76.8031 56.1865 78.8081 54.0101 79.6131 53.7944C80.418 53.5787 80.9499 53.9539 81.2087 54.9198C81.3956 55.6174 81.3071 56.3601 80.943 57.1478C80.6182 57.8675 80.3844 58.3903 80.2417 58.7161C79.9561 59.3678 79.1796 60.8699 77.912 63.2226C76.63 65.5217 76.1616 67.3151 76.5066 68.603ZM115.202 48.0544C115.292 48.6054 113.929 50.4948 111.113 53.7225C108.283 56.8966 104.901 60.1608 100.969 63.5151C97.0361 66.8694 94.0771 68.8126 92.0916 69.3446C90.1598 69.8622 88.3381 69.7177 86.6265 68.911C84.9006 68.0506 83.8291 66.8423 83.4121 65.2861C82.5494 62.0663 83.0871 58.385 85.0254 54.2422C87.0029 50.0314 89.5895 46.3762 92.7851 43.2769C96.02 40.1095 98.9521 38.1735 101.582 37.4689C104.265 36.75 106.371 36.5596 107.899 36.8977C109.413 37.1822 110.415 38.2367 110.904 40.0613C111.392 41.8858 110.78 44.3218 109.066 47.3693C107.391 50.3487 105.722 52.0613 104.058 52.507C102.985 52.7946 102.362 52.6164 102.189 51.9725C102.074 51.5432 102.242 51.0957 102.692 50.6299C103.196 50.1497 103.934 49.1468 104.906 47.6212C105.877 46.0955 106.306 45.118 106.191 44.6887C106.147 44.5277 105.965 44.4904 105.643 44.5766C103.765 45.0799 101.569 47.5089 99.0544 51.8635C96.5403 56.2182 95.5132 59.2541 95.9734 60.9713C96.2034 61.8299 96.7746 62.137 97.6869 61.8925C98.6528 61.6337 100.038 60.6873 101.844 59.0533C103.635 57.3656 105.808 55.1728 108.363 52.4751C110.919 49.7773 112.382 48.2635 112.754 47.9339C113.165 47.5361 113.505 47.3013 113.773 47.2294C114.525 47.0281 115.001 47.3031 115.202 48.0544ZM129.024 39.6059C126.387 46.294 125.342 50.6576 125.888 52.6968C126.075 53.3944 126.517 53.6498 127.215 53.4628C129.093 52.9596 132.259 50.5008 136.713 46.0866C141.167 41.6724 143.581 39.4149 143.957 39.3143C144.708 39.113 145.17 39.3343 145.343 39.9783L145.386 40.1392C145.418 40.4756 144.232 42.0588 141.827 44.8888C139.422 47.7188 136.3 50.7698 132.46 54.0417C128.621 57.3136 125.225 59.3449 122.274 60.1358C117.605 61.3867 114.545 59.3023 113.092 53.8823C111.784 48.999 112.877 42.6671 116.371 34.8865C119.904 27.0379 124.582 19.9179 130.404 13.5266C136.226 7.13537 141.606 3.2783 146.543 1.95544C148.689 1.38029 150.411 1.58043 151.707 2.55584C153.004 3.53126 153.796 4.5556 154.084 5.62885C154.659 7.77535 153.986 10.6301 152.065 14.1932C150.197 17.7419 147.797 21.2321 144.863 24.664C141.914 28.0422 138.948 31.1377 135.963 33.9505C133.017 36.6953 130.704 38.5804 129.024 39.6059ZM147.946 8.48122C147.087 8.71128 145.395 10.6601 142.87 14.3277C140.397 17.9808 138.147 21.6033 136.119 25.1952L133.055 30.5024C132.74 31.0467 132.619 31.453 132.691 31.7213C132.749 31.936 133.019 31.9786 133.502 31.8492C135.648 31.2741 138.775 27.7042 142.883 21.1396C146.991 14.575 148.814 10.4341 148.354 8.71692C148.297 8.50227 148.161 8.42371 147.946 8.48122ZM155.71 34.0945L159.547 32.6351C161.371 32.1463 162.528 32.8141 163.017 34.6386C163.275 35.6045 162.678 36.915 161.223 38.5701C159.769 40.2252 158.266 41.807 156.714 43.3154C155.202 44.7559 154.518 45.7444 154.662 46.281C154.763 46.6567 155.257 46.7831 156.144 46.6604C158.022 46.1571 161.188 43.6984 165.642 39.2841C170.095 34.8699 172.51 32.6125 172.886 32.5118C173.637 32.3105 174.113 32.5855 174.315 33.3368C174.405 33.8878 173.047 35.6895 170.241 38.7418C167.475 41.7262 164.104 44.815 160.129 48.0083C156.192 51.1336 153.043 53.0126 150.682 53.6453C146.98 54.6374 144.603 53.1748 143.554 49.2574C143.252 48.1305 143.672 46.695 144.815 44.9508C146.012 43.1923 147.232 41.6287 148.476 40.2602C149.774 38.8773 150.393 38.0785 150.336 37.8638C150.264 37.5955 149.809 37.401 148.972 37.2804C146.459 36.9184 144.987 35.9324 144.556 34.3225C143.751 31.3174 145.484 27.8047 149.755 23.7843C154.066 19.6959 158.368 17.0766 162.661 15.9263C165.023 15.2936 167.103 15.2249 168.904 15.7202C170.69 16.1618 171.828 17.2949 172.317 19.1194C172.791 20.8903 171.976 22.8917 169.871 25.1237C167.819 27.3414 166.257 28.594 165.184 28.8815C164.754 28.9966 164.323 28.9971 163.89 28.8831C163.511 28.7547 163.285 28.5564 163.213 28.2881C163.141 28.0197 163.751 27.3963 165.041 26.4178C166.371 25.3713 166.964 24.5797 166.821 24.043C166.749 23.7747 166.31 23.7484 165.505 23.9641C164.754 24.1654 162.462 25.6998 158.629 28.5673C154.782 31.3812 152.952 33.1369 153.139 33.8345C153.297 34.4248 154.154 34.5114 155.71 34.0945ZM195.125 36.8193C195.197 37.0876 195.435 37.2251 195.839 37.2318C196.215 37.1312 197.302 36.0348 199.099 33.9427C200.936 31.7826 201.967 30.5861 202.192 30.3532C202.471 30.1059 202.745 29.9464 203.013 29.8745C203.764 29.6732 204.241 29.9481 204.442 30.6994C204.629 31.397 203.148 33.4905 199.999 36.9799C196.904 40.4549 194.579 42.4009 193.023 42.8179C192.379 42.9904 191.609 42.909 190.714 42.5737C189.873 42.224 189.358 41.7004 189.172 41.0027C188.97 40.2515 188.942 39.3962 189.088 38.437C189.234 37.4777 189.27 36.8639 189.198 36.5956C189.112 36.2736 188.989 36.1342 188.828 36.1773C188.667 36.2205 188.52 36.3173 188.388 36.4677C184.232 41.7799 180.92 44.7666 178.452 45.4281C177.056 45.8019 175.82 45.5869 174.742 44.783C173.663 43.9791 172.907 43.0889 172.473 42.1124L171.902 40.6262C171.428 38.8553 171.552 36.6364 172.275 33.9694C173.038 31.2344 174.239 28.5258 175.878 25.8434C177.557 23.093 179.812 20.562 182.644 18.2503C185.529 15.9243 188.662 14.3084 192.043 13.4025C193.867 12.9137 195.687 12.9437 197.502 13.4926C199.371 14.0272 200.478 14.9384 200.823 16.2263C201.168 17.5142 200.115 18.6302 197.665 19.5744C195.902 20.5069 193.206 22.8971 189.579 26.7449C185.99 30.5247 184.383 33.1122 184.757 34.5074C184.915 35.0977 185.289 35.3138 185.879 35.1556C186.953 34.868 189.065 32.6628 192.216 28.54C195.421 24.4028 197.426 22.2264 198.231 22.0107C199.036 21.7951 199.568 22.1702 199.827 23.1361C200.014 23.8337 199.925 24.5764 199.561 25.3641C199.237 26.0838 199.003 26.6066 198.86 26.9324C198.574 27.5841 197.798 29.0862 196.53 31.4389C195.248 33.738 194.78 35.5314 195.125 36.8193ZM234.648 25.7979L236.884 24.1633C237.636 23.962 238.09 24.1565 238.248 24.7468C238.622 26.142 237.821 27.7659 235.844 29.6184C233.935 31.5102 231.935 32.7365 229.842 33.2973C227.802 33.8437 226.097 33.8118 224.726 33.2014C223.369 32.6448 222.446 31.4542 221.957 29.6297C221.468 27.8052 221.911 25.271 223.285 22.027C223.481 21.6868 223.558 21.4362 223.515 21.2753C223.457 21.0606 223.321 20.982 223.106 21.0396C222.892 21.0971 222.718 21.2011 222.586 21.3515C222.454 21.502 221.494 22.5356 219.707 24.4523C215.433 29.1061 212.368 32.3717 210.513 34.2491C209.73 34.9765 208.936 35.4481 208.131 35.6637C207.326 35.8794 206.304 35.6069 205.065 34.8461C203.826 34.0853 203.07 33.1952 202.796 32.1756C202.221 30.0291 204.204 25.2993 208.743 17.9863C213.269 10.6196 216.605 6.64864 218.751 6.07348C219.585 5.96512 220.405 6.23433 221.211 6.8811C222.017 7.52787 222.57 8.41472 222.872 9.54163C223.16 10.6149 223.074 11.9033 222.614 13.4069C221.937 15.6014 221.323 17.175 220.773 18.1275C220.262 19.0121 220.036 19.5617 220.093 19.7763C220.136 19.9373 220.239 19.9962 220.4 19.9531C220.561 19.91 220.754 19.7719 220.979 19.5391C221.243 19.2381 223.346 16.8916 227.288 12.4995C231.27 8.03928 233.512 5.56912 234.016 5.08898C234.506 4.55517 235.1 4.19481 235.797 4.00788C236.495 3.82096 237.501 3.92532 238.814 4.32098C240.114 4.66297 240.915 5.39743 241.217 6.52434C241.519 7.65125 240.972 9.5808 239.576 12.313C238.233 15.0308 236.842 17.6753 235.403 20.2465C233.964 22.8177 233.36 24.5326 233.59 25.3912C233.705 25.8205 234.057 25.956 234.648 25.7979Z" fill="white"/>
<path d="M3.25894 89.8689L3.8454 89.0589L3.8454 89.0589L3.25894 89.8689ZM1.82656 81.6254L0.871034 81.3305L0.871033 81.3305L1.82656 81.6254ZM4.69079 75.2502L3.84511 74.7165L3.83898 74.7262L3.83308 74.736L4.69079 75.2502ZM12.0812 65.1603L12.8232 65.8306L12.8313 65.8217L12.8391 65.8125L12.0812 65.1603ZM13.5285 63.4783L12.9042 62.6971L12.8314 62.7554L12.7705 62.8261L13.5285 63.4783ZM18.8684 62.4789L18.4363 63.3807L18.4556 63.3899L18.4752 63.3983L18.8684 62.4789ZM20.736 66.5509L21.7272 66.6835L21.7272 66.6835L20.736 66.5509ZM20.2604 68.3176L19.3585 67.8855L19.3367 67.931L19.3196 67.9784L20.2604 68.3176ZM19.3133 70.9007L20.1793 71.4007L20.2149 71.3392L20.2414 71.2732L19.3133 70.9007ZM22.3648 68.4439L23.1643 69.0445L23.1706 69.0361L23.1767 69.0276L22.3648 68.4439ZM35.9763 58.0674L35.5113 58.9527L35.5465 58.9712L35.583 58.9868L35.9763 58.0674ZM37.6986 61.9195L38.6601 62.1946L38.6657 62.1748L38.6705 62.1549L37.6986 61.9195ZM36.8263 64.1376L37.7281 64.5697L37.7309 64.5639L36.8263 64.1376ZM40.8279 61.685L41.6359 62.2741L41.6359 62.2741L40.8279 61.685ZM49.3198 56.9939L48.6596 57.7451L48.684 57.7665L48.7097 57.7863L49.3198 56.9939ZM48.8061 67.3118L49.7228 67.7114L49.7258 67.7044L48.8061 67.3118ZM47.0329 74.8613L47.2917 75.8272L47.3717 75.8058L47.447 75.7715L47.0329 74.8613ZM48.0304 74.0764L47.299 73.3944L47.299 73.3944L48.0304 74.0764ZM48.6864 79.4221L49.4291 80.0916L49.4354 80.0846L49.4416 80.0775L48.6864 79.4221ZM35.1067 76.0726L34.117 75.93L34.114 75.9503L34.1119 75.9706L35.1067 76.0726ZM35.9086 73.2696L36.7746 73.7696L36.8557 73.629L36.8883 73.4701L35.9086 73.2696ZM35.0116 72.8197L35.6106 73.6205L35.6748 73.5725L35.7305 73.5149L35.0116 72.8197ZM32.3268 76.645L33.1636 77.1925L33.1638 77.1922L32.3268 76.645ZM19.9227 86.6979L19.2734 87.4584L19.285 87.4683L19.2968 87.4779L19.9227 86.6979ZM19.2737 78.1583L20.187 78.5656L20.2157 78.5011L20.2351 78.4333L19.2737 78.1583ZM18.2531 77.569L17.4475 76.9764L17.4434 76.9821L18.2531 77.569ZM5.92101 89.5007C5.21941 89.6887 4.55285 89.5711 3.8454 89.0589L2.67248 90.6789C3.82038 91.51 5.10108 91.7909 6.43865 91.4325L5.92101 89.5007ZM3.8454 89.0589C3.13344 88.5434 2.6116 87.7749 2.31571 86.6707L0.383863 87.1883C0.778165 88.6599 1.52909 89.851 2.67248 90.6789L3.8454 89.0589ZM2.31571 86.6707C2.02728 85.5942 2.12776 84.0403 2.78208 81.9203L0.871033 81.3305C0.170725 83.5995 -0.0466417 85.5817 0.383863 87.1883L2.31571 86.6707ZM2.78208 81.9203C3.43471 79.8058 4.35582 77.754 5.54851 75.7643L3.83308 74.736C2.56142 76.8575 1.57304 79.0559 0.871034 81.3305L2.78208 81.9203ZM5.53648 75.7838C8.18357 71.5892 10.6128 68.2774 12.8232 65.8306L11.3391 64.4899C9.02494 67.0515 6.52726 70.4663 3.84511 74.7165L5.53648 75.7838ZM12.8391 65.8125L14.2865 64.1306L12.7705 62.8261L11.3232 64.508L12.8391 65.8125ZM14.1528 64.2595C14.806 63.7376 15.5173 63.3768 16.2926 63.1691L15.775 61.2372C14.7258 61.5183 13.7669 62.0077 12.9042 62.6971L14.1528 64.2595ZM16.2926 63.1691C17.0219 62.9737 17.722 63.0384 18.4363 63.3807L19.3005 61.5771C18.1672 61.034 16.9776 60.915 15.775 61.2372L16.2926 63.1691ZM18.4752 63.3983C19.1615 63.6919 19.4692 64.077 19.5902 64.5286L21.5221 64.0109C21.2117 62.8527 20.3943 62.0439 19.2617 61.5594L18.4752 63.3983ZM19.5902 64.5286C19.7769 65.2254 19.8206 65.8519 19.7448 66.4183L21.7272 66.6835C21.8429 65.8183 21.7667 64.924 21.5221 64.0109L19.5902 64.5286ZM19.7448 66.4183C19.6577 67.0693 19.5202 67.5481 19.3585 67.8855L21.1622 68.7497C21.4432 68.1633 21.6227 67.4642 21.7272 66.6835L19.7448 66.4183ZM19.3196 67.9784C18.7882 69.4526 18.4803 70.2915 18.3853 70.5282L20.2414 71.2732C20.3533 70.9943 20.6768 70.1112 21.2011 68.6567L19.3196 67.9784ZM18.4473 70.4007C18.2058 70.819 18.1262 71.3001 18.2569 71.7877L20.1887 71.27C20.1932 71.2868 20.1973 71.3174 20.1921 71.3534C20.1871 71.3883 20.1768 71.4051 20.1793 71.4007L18.4473 70.4007ZM18.2569 71.7877C18.3416 72.1039 18.5628 72.4493 18.9793 72.6164C19.3331 72.7584 19.6681 72.7036 19.8683 72.65L19.3507 70.7181C19.3542 70.7172 19.3892 70.7079 19.4478 70.7069C19.5075 70.7059 19.6073 70.7134 19.7243 70.7604C19.8479 70.81 19.9613 70.8921 20.0488 71.0003C20.1323 71.1036 20.171 71.204 20.1887 71.27L18.2569 71.7877ZM19.8683 72.65C20.0937 72.5896 20.2633 72.468 20.3415 72.4091C20.4416 72.3339 20.5389 72.2462 20.6291 72.1587C20.8108 71.9823 21.0234 71.7477 21.2614 71.4679C21.7402 70.9048 22.3762 70.0937 23.1643 69.0445L21.5652 67.8433C20.7848 68.8823 20.1773 69.6554 19.7377 70.1723C19.5165 70.4325 19.3511 70.6119 19.2361 70.7236C19.178 70.78 19.1473 70.8048 19.1396 70.8106C19.1102 70.8327 19.1924 70.7606 19.3507 70.7181L19.8683 72.65ZM23.1767 69.0276C25.4645 65.8451 27.4779 63.4041 29.2186 61.6836C30.9836 59.9389 32.3721 59.0331 33.4005 58.7576L32.8828 56.8257C31.3354 57.2404 29.6398 58.455 27.8126 60.2611C25.9609 62.0914 23.8738 64.6314 21.5528 67.8602L23.1767 69.0276ZM33.4005 58.7576C34.1968 58.5442 34.881 58.6217 35.5113 58.9527L36.4412 57.1821C35.3312 56.599 34.1256 56.4927 32.8828 56.8257L33.4005 58.7576ZM35.583 58.9868C36.2942 59.291 36.5755 59.6599 36.6765 60.0366L38.6083 59.519C38.3066 58.3931 37.4773 57.6218 36.3695 57.148L35.583 58.9868ZM36.6765 60.0366C36.8396 60.6456 36.8467 61.1887 36.7267 61.6842L38.6705 62.1549C38.8782 61.2973 38.8477 60.4126 38.6083 59.519L36.6765 60.0366ZM36.7372 61.6445C36.5789 62.1978 36.3116 62.8842 35.9217 63.7112L37.7309 64.5639C38.1478 63.6794 38.462 62.887 38.6601 62.1946L36.7372 61.6445ZM35.9245 63.7055C35.5869 64.4101 35.3299 64.999 35.1648 65.4601C35.0827 65.6893 35.0148 65.9105 34.9736 66.1122C34.9398 66.2772 34.8908 66.5733 34.9723 66.8774L36.9041 66.3598C36.9497 66.5298 36.9107 66.6219 36.933 66.5131C36.9477 66.4409 36.9818 66.3184 37.0478 66.1341C37.1788 65.7683 37.4018 65.2508 37.7281 64.5697L35.9245 63.7055ZM34.9723 66.8774C35.0948 67.3347 35.4373 67.6705 35.8892 67.7894C36.2482 67.8839 36.5986 67.822 36.8467 67.7556L36.3291 65.8237C36.2784 65.8373 36.2581 65.8386 36.2625 65.8383C36.265 65.8381 36.3171 65.8339 36.3983 65.8553C36.4863 65.8785 36.6059 65.9316 36.7151 66.0398C36.8246 66.1483 36.8797 66.2688 36.9041 66.3598L34.9723 66.8774ZM36.8467 67.7556C37.0928 67.6896 37.2877 67.5534 37.3989 67.4692C37.5308 67.3693 37.6647 67.2479 37.7965 67.118C38.0611 66.8571 38.3772 66.5019 38.7391 66.0661C39.466 65.191 40.4333 63.9236 41.6359 62.2741L40.0198 61.0958C38.8251 62.7344 37.8871 63.9618 37.2006 64.7882C36.8559 65.2033 36.5883 65.5006 36.3923 65.6938C36.2938 65.7909 36.2281 65.8471 36.1911 65.8751C36.1335 65.9187 36.1904 65.8609 36.3291 65.8237L36.8467 67.7556ZM41.6359 62.2741C42.8202 60.6498 43.8331 59.4222 44.6773 58.5718C45.5548 57.6878 46.1376 57.3289 46.4536 57.2443L45.9359 55.3124C45.0713 55.5441 44.1694 56.2445 43.2579 57.1628C42.3131 58.1145 41.2329 59.4321 40.0198 61.0958L41.6359 62.2741ZM46.4536 57.2443C47.3178 57.0127 48.0131 57.1769 48.6596 57.7451L49.9799 56.2428C48.8209 55.2242 47.4329 54.9113 45.9359 55.3124L46.4536 57.2443ZM48.7097 57.7863C49.5118 58.4038 49.9633 59.0738 50.1551 59.7896L52.087 59.272C51.7612 58.056 51.0119 57.0347 49.9298 56.2016L48.7097 57.7863ZM50.1551 59.7896C50.1671 59.8344 50.1899 60.017 50.1322 60.4179C50.0776 60.797 49.9632 61.2928 49.778 61.9153C49.4079 63.1592 48.7812 64.823 47.8864 66.9192L49.7258 67.7044C50.6331 65.5792 51.2933 63.8355 51.6949 62.4857C51.8955 61.8114 52.0382 61.2138 52.1118 60.7031C52.1822 60.2141 52.2044 59.7102 52.087 59.272L50.1551 59.7896ZM47.8893 66.9122C46.9784 69.0023 46.3035 70.6482 45.8709 71.8406C45.6554 72.4346 45.4927 72.9361 45.3916 73.3337C45.3412 73.5317 45.3009 73.724 45.2796 73.9006C45.2614 74.052 45.2424 74.2966 45.3094 74.5466L47.2413 74.029C47.2759 74.1584 47.255 74.2246 47.2652 74.1401C47.2724 74.0808 47.291 73.9796 47.3299 73.8266C47.4073 73.5221 47.5447 73.0913 47.751 72.5226C48.162 71.3897 48.8172 69.789 49.7228 67.7114L47.8893 66.9122ZM45.3094 74.5466C45.4005 74.8867 45.5781 75.3029 45.9582 75.5907C46.3867 75.915 46.8811 75.9372 47.2917 75.8272L46.7741 73.8954C46.7823 73.8932 46.8348 73.8805 46.9169 73.8923C47.0055 73.9051 47.0933 73.9416 47.1654 73.9961C47.2322 74.0467 47.2607 74.0939 47.2656 74.1024C47.2696 74.1095 47.2577 74.0903 47.2413 74.029L45.3094 74.5466ZM47.447 75.7715C47.9219 75.5555 48.3589 75.1905 48.7618 74.7583L47.299 73.3944C46.9872 73.7289 46.7592 73.8872 46.6188 73.9511L47.447 75.7715ZM48.7618 74.7583C49.0346 74.4658 49.2469 74.3543 49.3888 74.3163L48.8712 72.3845C48.2619 72.5477 47.7411 72.9203 47.299 73.3944L48.7618 74.7583ZM49.3888 74.3163C49.4983 74.287 49.5623 74.2826 49.5895 74.283C49.614 74.2833 49.5923 74.287 49.5478 74.266C49.526 74.2558 49.504 74.242 49.4837 74.2251C49.4636 74.2084 49.4495 74.1923 49.4406 74.1804C49.4237 74.1575 49.4331 74.1597 49.4477 74.2142L51.3796 73.6966C51.2482 73.2064 50.9539 72.7177 50.4005 72.4569C49.885 72.2139 49.3331 72.2607 48.8712 72.3845L49.3888 74.3163ZM49.4477 74.2142C49.8075 75.5571 49.424 77.0465 47.9311 78.7666L49.4416 80.0775C51.2008 78.0505 51.9688 75.8955 51.3796 73.6966L49.4477 74.2142ZM47.9436 78.7526C46.4112 80.4526 44.7323 81.5169 42.9081 82.0056L43.4258 83.9375C45.6799 83.3335 47.6806 82.0314 49.4291 80.0916L47.9436 78.7526ZM42.9081 82.0056C40.8812 82.5488 39.4218 82.4616 38.4012 81.9597C37.4109 81.4727 36.6373 80.4969 36.1836 78.8036L34.2517 79.3213C34.8045 81.3844 35.8591 82.9383 37.5186 83.7544C39.1477 84.5555 41.1597 84.5447 43.4258 83.9375L42.9081 82.0056ZM36.1836 78.8036C36.027 78.2193 35.98 77.3598 36.1015 76.1746L34.1119 75.9706C33.9788 77.2693 34.0057 78.4031 34.2517 79.3213L36.1836 78.8036ZM36.0965 76.2152C36.2715 75.0009 36.5165 74.2166 36.7746 73.7696L35.0425 72.7696C34.5935 73.5473 34.304 74.6317 34.117 75.93L36.0965 76.2152ZM36.8883 73.4701C36.9292 73.2702 36.9609 73.0821 36.9771 72.9154C36.9901 72.7823 37.0077 72.5419 36.9434 72.3021L35.0116 72.8197C34.9995 72.7746 34.9945 72.7396 34.9922 72.7199C34.9899 72.6994 34.9896 72.6862 34.9895 72.6824C34.9894 72.6762 34.9899 72.6874 34.9865 72.7218C34.9798 72.7913 34.9627 72.9039 34.9289 73.0691L36.8883 73.4701ZM36.9434 72.3021C36.8587 71.9859 36.6375 71.6405 36.221 71.4734C35.8672 71.3314 35.5322 71.3862 35.332 71.4398L35.8496 73.3716C35.8461 73.3726 35.8112 73.3819 35.7526 73.3829C35.6929 73.3839 35.593 73.3764 35.476 73.3294C35.3524 73.2798 35.239 73.1977 35.1515 73.0895C35.068 72.9862 35.0293 72.8858 35.0116 72.8197L36.9434 72.3021ZM35.332 71.4398C34.8967 71.5564 34.5452 71.8635 34.2927 72.1246L35.7305 73.5149C35.815 73.4274 35.8737 73.3788 35.9068 73.3551C35.9224 73.344 35.9265 73.3425 35.9195 73.3461C35.9127 73.3496 35.889 73.3611 35.8496 73.3716L35.332 71.4398ZM34.4125 72.019C34.2269 72.1579 34.0463 72.3834 33.9206 72.5446C33.7638 72.7456 33.57 73.0114 33.3422 73.336C32.8853 73.9869 32.267 74.9092 31.4898 76.0977L33.1638 77.1922C33.9369 76.0098 34.5412 75.1091 34.9792 74.485C35.1989 74.172 35.3707 73.9373 35.4975 73.7747C35.6554 73.5723 35.6765 73.5712 35.6106 73.6205L34.4125 72.019ZM31.49 76.0975C29.3809 79.3209 27.5597 81.7758 26.0243 83.4834C24.4485 85.2358 23.3026 86.0511 22.5632 86.2492L23.0809 88.1811C24.4343 87.8184 25.9189 86.5917 27.5114 84.8207C29.1442 83.0049 31.029 80.455 33.1636 77.1925L31.49 76.0975ZM22.5632 86.2492C21.6984 86.481 21.0714 86.3376 20.5486 85.918L19.2968 87.4779C20.3859 88.3518 21.6919 88.5532 23.0809 88.1811L22.5632 86.2492ZM20.572 85.9374C19.8829 85.349 19.4763 84.7101 19.2915 84.0201L17.3596 84.5377C17.6636 85.6722 18.3218 86.6459 19.2734 87.4584L20.572 85.9374ZM19.2915 84.0201C18.9295 82.6694 19.1549 80.8798 20.187 78.5656L18.3604 77.7509C17.2368 80.2705 16.83 82.5613 17.3596 84.5377L19.2915 84.0201ZM20.2351 78.4333C20.3526 78.0225 20.4081 77.5624 20.287 77.1103L18.3551 77.6279C18.3515 77.6142 18.3568 77.6238 18.3542 77.6675C18.3515 77.7118 18.3411 77.7823 18.3123 77.8832L20.2351 78.4333ZM20.287 77.1103C20.2234 76.8729 20.0845 76.5277 19.7523 76.2833C19.376 76.0065 18.9529 76.0011 18.6324 76.087L19.1501 78.0188C19.1048 78.031 19.0188 78.0465 18.9063 78.0315C18.7871 78.0156 18.6687 77.9691 18.5671 77.8943C18.3781 77.7553 18.3468 77.597 18.3551 77.6279L20.287 77.1103ZM18.6324 76.087C18.1009 76.2294 17.7175 76.6095 17.4476 76.9764L19.0586 78.1616C19.1275 78.0679 19.1762 78.0215 19.1995 78.0026C19.2216 77.9848 19.2053 78.004 19.1501 78.0188L18.6324 76.087ZM17.4434 76.9821C14.5564 80.9648 12.1295 84.0002 10.1585 86.1059C9.17271 87.1589 8.31631 87.9628 7.58668 88.5327C6.84337 89.1132 6.29424 89.4007 5.92101 89.5007L6.43865 91.4325C7.19234 91.2306 7.99145 90.7542 8.8177 90.1089C9.65762 89.453 10.5921 88.5692 11.6186 87.4726C13.6719 85.2791 16.1547 82.1676 19.0627 78.1559L17.4434 76.9821ZM77.2211 69.0155L77.2046 70.0154L77.3446 70.0177L77.4799 69.9814L77.2211 69.0155ZM80.4809 65.7264L81.2394 66.3781L81.2427 66.3742L80.4809 65.7264ZM83.5739 62.1369L82.9104 61.3887L82.8817 61.4142L82.855 61.4418L83.5739 62.1369ZM81.381 68.7636L80.6385 68.0937L80.6342 68.0985L81.381 68.7636ZM72.0957 74.3574L71.7119 75.2808L71.7283 75.2876L71.7449 75.2938L72.0957 74.3574ZM70.4696 70.2206L69.4809 70.0706L69.4809 70.0706L70.4696 70.2206ZM69.7694 68.2514L69.0183 67.5913L68.9994 67.6128L68.9818 67.6353L69.7694 68.2514ZM56.1232 76.5667L55.5255 77.3683L55.5255 77.3683L56.1232 76.5667ZM53.8548 73.8961L52.9212 74.2546L52.9305 74.2788L52.941 74.3024L53.8548 73.8961ZM53.284 72.4099L52.318 72.6687L52.3316 72.7194L52.3504 72.7684L53.284 72.4099ZM53.6571 65.7531L52.6938 65.4846L52.692 65.4914L53.6571 65.7531ZM57.2601 57.6271L58.1133 58.1486L58.1136 58.148L57.2601 57.6271ZM64.0253 50.034L63.3977 49.2555L63.3929 49.2594L64.0253 50.034ZM78.8836 45.2763L78.5941 46.2335L78.6013 46.2357L78.6086 46.2378L78.8836 45.2763ZM79.0465 51.358L78.687 50.4249L78.6315 50.4463L78.579 50.4741L79.0465 51.358ZM70.9602 58.5286L71.6854 59.2171L71.6878 59.2146L70.9602 58.5286ZM73.598 60.3237L72.8075 59.7113L72.8036 59.7164L73.598 60.3237ZM80.943 57.1478L80.0352 56.7283L80.0315 56.7365L80.943 57.1478ZM80.2417 58.7161L79.3257 58.3148L79.3257 58.3148L80.2417 58.7161ZM77.912 63.2226L78.7854 63.7096L78.7889 63.7033L78.7923 63.697L77.912 63.2226ZM75.5407 68.8618C75.6445 69.2493 75.8878 69.5705 76.2392 69.7734C76.5587 69.9578 76.9068 70.0105 77.2046 70.0154L77.2376 68.0156C77.1309 68.0139 77.1579 67.9944 77.2392 68.0414C77.2851 68.0679 77.339 68.1106 77.3864 68.1726C77.4336 68.2345 77.4597 68.2963 77.4726 68.3442L75.5407 68.8618ZM77.4799 69.9814C77.8042 69.8945 78.0909 69.6733 78.2696 69.5271C78.4905 69.3462 78.7452 69.1071 79.028 68.8217C79.5961 68.2485 80.3351 67.4305 81.2394 66.3781L79.7224 65.0747C78.8291 66.1144 78.126 66.8906 77.6075 67.4138C77.3471 67.6766 77.1473 67.8611 77.0027 67.9795C76.8157 68.1326 76.8258 68.0861 76.9623 68.0496L77.4799 69.9814ZM81.2427 66.3742C83.0964 64.1942 84.0966 63.0349 84.2928 62.832L82.855 61.4418C82.6008 61.7046 81.539 62.9383 79.7191 65.0786L81.2427 66.3742ZM84.2374 62.8851C84.4379 62.7073 84.5773 62.6445 84.6534 62.6241L84.1358 60.6922C83.6753 60.8156 83.2676 61.072 82.9104 61.3887L84.2374 62.8851ZM84.6534 62.6241C84.7637 62.5946 84.8245 62.5934 84.8466 62.5947C84.8636 62.5957 84.8458 62.5971 84.8153 62.5794C84.7848 62.5618 84.7771 62.5458 84.7864 62.5599C84.7986 62.5784 84.828 62.6317 84.8576 62.7419L86.7894 62.2243C86.6489 61.6998 86.3641 61.1643 85.8153 60.8474C85.2665 60.5305 84.6603 60.5517 84.1358 60.6922L84.6534 62.6241ZM84.8576 62.7419C84.8243 62.6177 84.8484 62.5513 84.8387 62.5955C84.8307 62.632 84.8061 62.713 84.7437 62.8475C84.6187 63.1172 84.3917 63.497 84.0367 63.999C83.3305 64.9972 82.2043 66.3585 80.6385 68.0937L82.1234 69.4335C83.7063 67.6793 84.8948 66.2491 85.6695 65.1539C86.0548 64.6091 86.3598 64.1167 86.5582 63.6886C86.6577 63.4742 86.7426 63.2499 86.7921 63.0248C86.8399 62.8073 86.8694 62.5229 86.7894 62.2243L84.8576 62.7419ZM80.6342 68.0985C79.104 69.8166 77.785 71.1326 76.6738 72.0624C75.5412 73.0102 74.7075 73.485 74.1454 73.6356L74.663 75.5675C75.6571 75.3011 76.7643 74.5945 77.9573 73.5963C79.1717 72.5801 80.563 71.1856 82.1277 69.4287L80.6342 68.0985ZM74.1454 73.6356C73.773 73.7354 73.2278 73.7137 72.4465 73.421L71.7449 75.2938C72.7537 75.6718 73.7475 75.8128 74.663 75.5675L74.1454 73.6356ZM72.4795 73.434C71.8422 73.1691 71.6051 72.8484 71.5191 72.5276L69.5873 73.0453C69.8752 74.1197 70.6664 74.8463 71.7119 75.2808L72.4795 73.434ZM71.5191 72.5276C71.3612 71.9382 71.3285 71.2263 71.4583 70.3707L69.4809 70.0706C69.3196 71.1335 69.3426 72.1321 69.5873 73.0453L71.5191 72.5276ZM71.4583 70.3707C71.5334 69.8761 71.5837 69.4499 71.6046 69.1008C71.6236 68.7846 71.6272 68.4232 71.5461 68.1205L69.6142 68.6381C69.605 68.6037 69.6261 68.6833 69.6082 68.9809C69.5923 69.2456 69.5515 69.6059 69.4809 70.0706L71.4583 70.3707ZM71.5461 68.1205C71.4897 67.9102 71.3877 67.6143 71.1709 67.3698C71.052 67.2357 70.8791 67.0954 70.6434 67.0156C70.4007 66.9335 70.1597 66.939 69.9504 66.9951L70.4681 68.927C70.3393 68.9615 70.1742 68.9682 70.0025 68.9102C69.838 68.8545 69.7316 68.7611 69.6745 68.6967C69.5813 68.5916 69.5843 68.5265 69.6142 68.6381L71.5461 68.1205ZM69.9504 66.9951C69.5631 67.0989 69.2541 67.3229 69.0183 67.5913L70.5206 68.9116C70.5361 68.8939 70.5399 68.8936 70.5295 68.9005C70.518 68.9081 70.4969 68.9192 70.4681 68.927L69.9504 66.9951ZM68.9818 67.6353C66.9235 70.2664 65.0963 72.2925 63.499 73.733C61.885 75.1884 60.5814 75.976 59.5745 76.2458L60.0921 78.1777C61.5536 77.7861 63.1403 76.7495 64.8384 75.2182C66.5531 73.6719 68.4597 71.5486 70.557 68.8676L68.9818 67.6353ZM59.5745 76.2458C58.4497 76.5472 57.5336 76.3709 56.721 75.765L55.5255 77.3683C56.8691 78.3702 58.4265 78.624 60.0921 78.1777L59.5745 76.2458ZM56.721 75.765C55.7454 75.0375 55.1172 74.274 54.7685 73.4898L52.941 74.3024C53.4607 75.4711 54.3448 76.488 55.5255 77.3683L56.721 75.765ZM54.7883 73.5376L54.2175 72.0514L52.3504 72.7684L52.9212 74.2546L54.7883 73.5376ZM54.2499 72.1511C53.8386 70.616 53.9235 68.5913 54.6223 66.0149L52.692 65.4914C51.9442 68.2488 51.7804 70.662 52.318 72.6687L54.2499 72.1511ZM54.6204 66.0217C55.3556 63.3846 56.517 60.7605 58.1133 58.1486L56.4068 57.1056C54.7243 59.8584 53.4837 62.6516 52.6939 65.4846L54.6204 66.0217ZM58.1136 58.148C59.7261 55.5061 61.9021 53.0583 64.6578 50.8087L63.3929 49.2594C60.4855 51.633 58.1513 54.2472 56.4065 57.1061L58.1136 58.148ZM64.653 50.8125C67.4361 48.5688 70.4448 47.0198 73.6831 46.1522L73.1654 44.2203C69.6422 45.1644 66.3849 46.8473 63.3977 49.2555L64.653 50.8125ZM73.6831 46.1522C75.3268 45.7117 76.9567 45.7383 78.5941 46.2335L79.1731 44.3191C77.1804 43.7165 75.1707 43.683 73.1654 44.2203L73.6831 46.1522ZM78.6086 46.2378C80.3084 46.724 81.0219 47.461 81.2383 48.2688L83.1702 47.7512C82.6965 45.9832 81.1962 44.8978 79.1586 44.3149L78.6086 46.2378ZM81.2383 48.2688C81.3062 48.5222 81.2768 48.7763 80.9462 49.1268C80.571 49.5246 79.8584 49.9735 78.687 50.4249L79.4061 52.2912C80.6849 51.7984 81.7237 51.2173 82.4011 50.4991C83.1231 49.7336 83.4474 48.7857 83.1702 47.7512L81.2383 48.2688ZM78.579 50.4741C76.6498 51.4945 73.8507 54.005 70.2326 57.8426L71.6878 59.2146C75.3252 55.3565 77.917 53.0867 79.5141 52.242L78.579 50.4741ZM70.235 57.8401C68.422 59.7498 67.0699 61.3985 66.214 62.7764C65.7858 63.4657 65.4622 64.118 65.2742 64.7253C65.0876 65.3277 65.013 65.9552 65.1724 66.5499L67.1042 66.0323C67.0767 65.9294 67.0628 65.7103 67.1846 65.317C67.3049 64.9286 67.5374 64.4362 67.9129 63.8317C68.6642 62.6222 69.91 61.0872 71.6854 59.2171L70.235 57.8401ZM65.1724 66.5499C65.2914 66.994 65.5398 67.4745 66.0376 67.7619C66.5354 68.0493 67.0758 68.0242 67.5198 67.9052L67.0022 65.9734C66.9322 65.9921 66.9079 65.9889 66.9187 65.9895C66.9252 65.9899 66.9409 65.9915 66.9631 65.9979C66.9858 66.0044 67.0114 66.0147 67.0376 66.0298C67.0638 66.045 67.0856 66.062 67.1025 66.0784C67.1192 66.0945 67.1284 66.1073 67.132 66.1127C67.1379 66.1217 67.123 66.1022 67.1042 66.0323L65.1724 66.5499ZM67.5198 67.9052C67.9846 67.7807 68.4455 67.4892 68.877 67.1516C69.3265 66.7999 69.8261 66.3317 70.3723 65.7614C71.4658 64.62 72.8075 63.0046 74.3925 60.931L72.8036 59.7164C71.2371 61.7656 69.947 63.3143 68.9281 64.378C68.4181 64.9103 67.9914 65.305 67.6445 65.5765C67.2796 65.862 67.0741 65.9541 67.0022 65.9734L67.5198 67.9052ZM74.3886 60.9361C75.9847 58.8758 77.2671 57.3233 78.2411 56.2661C78.7292 55.7362 79.1247 55.3474 79.4326 55.0853C79.7758 54.7931 79.9049 54.7515 79.8719 54.7604L79.3543 52.8285C78.9188 52.9452 78.4955 53.2565 78.1361 53.5624C77.7415 53.8983 77.2846 54.3526 76.7701 54.911C75.7391 56.0301 74.4164 57.6345 72.8075 59.7113L74.3886 60.9361ZM79.8719 54.7604C79.9785 54.7318 80.0325 54.7347 80.0472 54.7364C80.0553 54.7374 80.0468 54.7365 80.0393 54.7312C80.035 54.7281 80.143 54.806 80.2428 55.1786L82.1746 54.661C82.0157 54.0677 81.7283 53.475 81.1921 53.0968C80.6187 52.6924 79.9566 52.6671 79.3543 52.8285L79.8719 54.7604ZM80.2428 55.1786C80.3576 55.607 80.3218 56.1083 80.0353 56.7283L81.8507 57.5674C82.2923 56.6119 82.4337 55.6279 82.1746 54.661L80.2428 55.1786ZM80.0315 56.7365C79.7066 57.4565 79.4708 57.9836 79.3257 58.3148L81.1576 59.1174C81.298 58.797 81.5298 58.2785 81.8545 57.5592L80.0315 56.7365ZM79.3257 58.3148C79.06 58.9212 78.3056 60.3838 77.0316 62.7483L78.7923 63.697C80.0536 61.3561 80.8523 59.8143 81.1576 59.1174L79.3257 58.3148ZM77.0386 62.7356C75.7373 65.0693 75.0873 67.1696 75.5407 68.8618L77.4726 68.3442C77.2358 67.4606 77.5227 65.974 78.7854 63.7096L77.0386 62.7356ZM115.202 48.0544L116.189 47.893L116.181 47.8437L116.168 47.7956L115.202 48.0544ZM111.113 53.7225L111.86 54.3881L111.867 54.3799L111.113 53.7225ZM100.969 63.5151L100.32 62.7543L100.32 62.7543L100.969 63.5151ZM86.6265 68.911L86.1803 69.8059L86.1902 69.8108L86.2001 69.8155L86.6265 68.911ZM85.0254 54.2422L84.1202 53.8171L84.1196 53.8184L85.0254 54.2422ZM92.7851 43.2769L93.4813 43.9947L93.4847 43.9914L92.7851 43.2769ZM107.899 36.8977L107.683 37.8741L107.699 37.8776L107.714 37.8805L107.899 36.8977ZM109.066 47.3693L108.194 46.879L108.194 46.8793L109.066 47.3693ZM102.692 50.6299L102.003 49.9058L101.988 49.92L101.974 49.9348L102.692 50.6299ZM104.906 47.6212L105.749 48.1583L105.749 48.1583L104.906 47.6212ZM99.0544 51.8635L99.9204 52.3635L99.9204 52.3635L99.0544 51.8635ZM101.844 59.0533L102.515 59.7947L102.522 59.7879L102.529 59.781L101.844 59.0533ZM108.363 52.4751L109.089 53.1628L109.089 53.1628L108.363 52.4751ZM112.754 47.9339L113.418 48.6821L113.434 48.6676L113.45 48.6525L112.754 47.9339ZM114.215 48.2158C114.19 48.0634 114.227 47.9804 114.212 48.029C114.202 48.0613 114.174 48.1342 114.111 48.2561C113.984 48.4994 113.765 48.8435 113.436 49.2996C112.782 50.2067 111.761 51.4587 110.36 53.0651L111.867 54.3799C113.281 52.7586 114.35 51.452 115.058 50.4697C115.411 49.9811 115.693 49.5479 115.884 49.181C115.979 48.998 116.065 48.8076 116.123 48.6185C116.177 48.4458 116.236 48.1831 116.189 47.893L114.215 48.2158ZM110.367 53.0569C107.572 56.1908 104.225 59.4234 100.32 62.7543L101.618 64.2759C105.578 60.8981 108.993 57.6024 111.859 54.3881L110.367 53.0569ZM100.32 62.7543C98.3721 64.4155 96.6838 65.7114 95.2511 66.6523C93.8062 67.6012 92.6742 68.1532 91.8328 68.3787L92.3504 70.3105C93.4945 70.004 94.8348 69.3184 96.3489 68.3241C97.8752 67.3218 99.6326 65.969 101.618 64.2759L100.32 62.7543ZM91.8328 68.3787C90.1153 68.8389 88.5376 68.7062 87.0528 68.0064L86.2001 69.8155C88.1385 70.7292 90.2042 70.8856 92.3504 70.3105L91.8328 68.3787ZM87.0726 68.016C85.5479 67.2559 84.7063 66.2523 84.378 65.0272L82.4462 65.5449C82.9519 67.4323 84.2532 68.8453 86.1803 69.8059L87.0726 68.016ZM84.378 65.0272C83.5956 62.1072 84.0557 58.6746 85.9311 54.666L84.1196 53.8184C82.1186 58.0954 81.5031 62.0255 82.4462 65.5449L84.378 65.0272ZM85.9305 54.6673C87.859 50.5609 90.3763 47.0062 93.4813 43.9947L92.0889 42.559C88.8026 45.7463 86.1468 49.5018 84.1202 53.8171L85.9305 54.6673ZM93.4847 43.9914C96.6689 40.8736 99.4531 39.0746 101.84 38.4349L101.323 36.503C98.4512 37.2724 95.3711 39.3453 92.0855 42.5624L93.4847 43.9914ZM101.84 38.4349C104.471 37.7299 106.39 37.5881 107.683 37.8741L108.115 35.9213C106.351 35.5311 104.058 35.7701 101.323 36.503L101.84 38.4349ZM107.714 37.8805C108.278 37.9864 108.714 38.2251 109.061 38.5906C109.417 38.9661 109.724 39.5222 109.938 40.3201L111.869 39.8024C111.594 38.7758 111.156 37.8923 110.511 37.2133C109.856 36.5243 109.034 36.0935 108.084 35.9149L107.714 37.8805ZM109.938 40.3201C110.321 41.7492 109.878 43.8852 108.194 46.879L109.937 47.8595C111.682 44.7584 112.464 42.0224 111.869 39.8024L109.938 40.3201ZM108.194 46.8793C106.538 49.826 105.042 51.2081 103.799 51.5411L104.317 53.473C106.401 52.9145 108.244 50.8715 109.937 47.8593L108.194 46.8793ZM103.799 51.5411C103.576 51.6008 103.403 51.6291 103.273 51.6375C103.142 51.6459 103.078 51.6326 103.061 51.6277C103.051 51.6248 103.084 51.6335 103.122 51.6728C103.159 51.711 103.162 51.7379 103.155 51.7137L101.224 52.2313C101.397 52.8805 101.85 53.3614 102.511 53.5505C103.081 53.7135 103.715 53.6342 104.317 53.473L103.799 51.5411ZM103.155 51.7137C103.154 51.7089 103.154 51.708 103.154 51.707C103.154 51.7053 103.155 51.6924 103.165 51.6657C103.187 51.6074 103.25 51.4923 103.411 51.325L101.974 49.9348C101.401 50.5268 100.98 51.3219 101.224 52.2313L103.155 51.7137ZM103.382 51.3539C103.986 50.779 104.782 49.6774 105.749 48.1583L104.062 47.084C103.087 48.6163 102.407 49.5205 102.003 49.9058L103.382 51.3539ZM105.749 48.1583C106.247 47.3775 106.628 46.7022 106.872 46.1451C106.994 45.8669 107.093 45.592 107.151 45.3308C107.206 45.0847 107.245 44.7606 107.157 44.4299L105.225 44.9475C105.194 44.8314 105.222 44.7906 105.199 44.8961C105.179 44.9866 105.132 45.132 105.04 45.3425C104.856 45.7629 104.537 46.3392 104.062 47.084L105.749 48.1583ZM107.157 44.4299C107.1 44.2206 106.985 44.0092 106.792 43.84C106.605 43.6758 106.397 43.5962 106.222 43.5603C105.902 43.4947 105.594 43.5544 105.384 43.6107L105.902 45.5426C106.013 45.5127 105.958 45.5478 105.821 45.5197C105.737 45.5024 105.602 45.4569 105.472 45.3423C105.336 45.2227 105.259 45.0763 105.225 44.9475L107.157 44.4299ZM105.384 43.6107C104.171 43.9358 102.994 44.835 101.845 46.1051C100.682 47.3919 99.4641 49.1538 98.1884 51.3635L99.9204 52.3635C101.159 50.2185 102.296 48.5887 103.329 47.4465C104.377 46.2877 105.237 45.7208 105.902 45.5426L105.384 43.6107ZM98.1884 51.3635C96.9147 53.5696 95.9943 55.4809 95.4513 57.086C94.9186 58.6607 94.6996 60.0812 95.0074 61.2301L96.9393 60.7125C96.787 60.1442 96.8515 59.1881 97.3458 57.7269C97.8298 56.2961 98.68 54.5121 99.9204 52.3635L98.1884 51.3635ZM95.0074 61.2301C95.1665 61.8238 95.4928 62.3995 96.1007 62.7263C96.6949 63.0458 97.3547 63.0168 97.9457 62.8585L97.428 60.9266C97.1067 61.0127 97.0248 60.9524 97.0478 60.9648C97.0846 60.9845 97.0103 60.9774 96.9393 60.7125L95.0074 61.2301ZM97.9457 62.8585C98.5867 62.6867 99.2828 62.3141 100.015 61.8143C100.757 61.3069 101.592 60.6299 102.515 59.7947L101.173 58.3119C100.29 59.1107 99.5291 59.7239 98.8865 60.1628C98.2326 60.6095 97.7529 60.8395 97.428 60.9266L97.9457 62.8585ZM102.529 59.781C104.339 58.0756 106.527 55.8681 109.089 53.1628L107.637 51.7873C105.089 54.4776 102.93 56.6555 101.158 58.3255L102.529 59.781ZM109.089 53.1628C111.667 50.4415 113.088 48.9743 113.418 48.6821L112.091 47.1857C111.677 47.5528 110.171 49.113 107.637 51.7873L109.089 53.1628ZM113.45 48.6525C113.63 48.4784 113.774 48.3591 113.886 48.2821C114.003 48.2012 114.049 48.1909 114.032 48.1954L113.514 46.2635C112.984 46.4057 112.488 46.7997 112.059 47.2152L113.45 48.6525ZM114.032 48.1954C114.142 48.1658 114.203 48.1646 114.225 48.166C114.242 48.167 114.224 48.1684 114.194 48.1507C114.163 48.1331 114.156 48.117 114.165 48.1312C114.177 48.1497 114.207 48.203 114.236 48.3132L116.168 47.7956C116.027 47.271 115.743 46.7355 115.194 46.4187C114.645 46.1018 114.039 46.123 113.514 46.2635L114.032 48.1954ZM129.024 39.6059L128.503 38.7523L128.216 38.927L128.093 39.2392L129.024 39.6059ZM136.713 46.0866L136.009 45.3764L136.009 45.3764L136.713 46.0866ZM145.386 40.1392L146.381 40.0427L146.373 39.9604L146.352 39.8804L145.386 40.1392ZM141.827 44.8888L142.589 45.5364L142.589 45.5364L141.827 44.8888ZM132.46 54.0417L131.812 53.2805L131.812 53.2805L132.46 54.0417ZM116.371 34.8865L115.459 34.476L115.459 34.4768L116.371 34.8865ZM130.404 13.5266L129.665 12.8532L129.665 12.8532L130.404 13.5266ZM152.065 14.1932L151.184 13.7186L151.18 13.7275L152.065 14.1932ZM144.863 24.664L145.616 25.3216L145.623 25.3138L144.863 24.664ZM135.963 33.9505L136.645 34.6821L136.649 34.6783L135.963 33.9505ZM142.87 14.3277L142.046 13.7605L142.041 13.7672L142.87 14.3277ZM136.119 25.1952L136.985 25.6952L136.99 25.6869L136.119 25.1952ZM142.883 21.1396L143.731 21.67L142.883 21.1396ZM128.093 39.2392C126.767 42.6042 125.828 45.4157 125.29 47.6618C124.763 49.8619 124.579 51.6761 124.922 52.9556L126.854 52.438C126.651 51.6784 126.717 50.2911 127.235 48.1276C127.742 46.0101 128.644 43.2957 129.954 39.9727L128.093 39.2392ZM124.922 52.9556C125.056 53.4533 125.328 53.9705 125.86 54.2775C126.392 54.5846 126.976 54.5621 127.474 54.4288L126.956 52.4969C126.859 52.5228 126.811 52.5226 126.8 52.5219C126.795 52.5216 126.8 52.5215 126.813 52.5251C126.826 52.5288 126.842 52.5353 126.86 52.5455C126.878 52.5557 126.892 52.5668 126.901 52.5761C126.911 52.5852 126.913 52.5899 126.911 52.5861C126.905 52.5768 126.88 52.5348 126.854 52.438L124.922 52.9556ZM127.474 54.4288C128.618 54.1223 130.011 53.2739 131.611 52.0311C133.239 50.7674 135.175 49.0184 137.417 46.7969L136.009 45.3764C133.797 47.569 131.923 49.2565 130.385 50.4515C128.819 51.6675 127.691 52.3001 126.956 52.4969L127.474 54.4288ZM137.417 46.7969C139.642 44.5917 141.351 42.9319 142.547 41.8133C143.147 41.2529 143.609 40.8366 143.938 40.558C144.104 40.4176 144.225 40.3223 144.306 40.2636C144.326 40.2497 144.341 40.2392 144.352 40.2316C144.364 40.2239 144.369 40.2207 144.369 40.2208C144.369 40.2209 144.366 40.2223 144.362 40.2246C144.358 40.227 144.35 40.2309 144.34 40.2358C144.323 40.2437 144.279 40.2633 144.216 40.2802L143.698 38.3484C143.542 38.3901 143.418 38.4599 143.356 38.4961C143.28 38.541 143.205 38.5922 143.135 38.6426C142.995 38.7439 142.83 38.8759 142.647 39.0304C142.28 39.3413 141.789 39.7841 141.181 40.3524C139.963 41.4912 138.238 43.1673 136.009 45.3764L137.417 46.7969ZM144.216 40.2802C144.338 40.2475 144.413 40.2418 144.45 40.2424C144.484 40.243 144.471 40.2484 144.435 40.2311C144.417 40.2228 144.4 40.2115 144.384 40.1981C144.368 40.1847 144.358 40.1728 144.353 40.1659C144.343 40.153 144.358 40.1678 144.377 40.2371L146.309 39.7194C146.171 39.2063 145.868 38.6999 145.299 38.4275C144.765 38.1718 144.189 38.2167 143.698 38.3484L144.216 40.2802ZM144.377 40.2371L144.42 40.3981L146.352 39.8804L146.309 39.7194L144.377 40.2371ZM144.39 40.2357C144.369 40.0135 144.444 39.8771 144.419 39.9367C144.411 39.9556 144.385 40.0103 144.325 40.1102C144.206 40.3071 144.009 40.5935 143.72 40.9793C143.146 41.746 142.264 42.8308 141.065 44.2412L142.589 45.5364C143.796 44.1167 144.709 42.995 145.321 42.1785C145.625 41.7727 145.869 41.4234 146.039 41.1404C146.123 41.0004 146.203 40.8541 146.263 40.7109C146.306 40.6085 146.411 40.3491 146.381 40.0427L144.39 40.2357ZM141.065 44.2412C138.705 47.0189 135.624 50.032 131.812 53.2805L133.109 54.8028C136.976 51.5076 140.14 48.4187 142.589 45.5364L141.065 44.2412ZM131.812 53.2805C128.021 56.5111 124.759 58.4347 122.015 59.1699L122.533 61.1017C125.692 60.2552 129.221 58.116 133.109 54.8028L131.812 53.2805ZM122.015 59.1699C119.87 59.7445 118.261 59.5158 117.04 58.6841C115.788 57.8313 114.753 56.217 114.058 53.6235L112.126 54.1412C112.884 56.9676 114.106 59.1055 115.914 60.3371C117.753 61.59 120.009 61.778 122.533 61.1017L122.015 59.1699ZM114.058 53.6235C112.838 49.0707 113.824 42.9987 117.283 35.2962L115.459 34.4768C111.929 42.3355 110.729 48.9274 112.126 54.1412L114.058 53.6235ZM117.283 35.297C120.773 27.545 125.392 20.5137 131.143 14.2001L129.665 12.8532C123.772 19.3221 119.036 26.5307 115.459 34.476L117.283 35.297ZM131.143 14.2001C136.916 7.86323 142.137 4.17116 146.801 2.92137L146.284 0.989519C141.074 2.38544 135.536 6.4075 129.665 12.8532L131.143 14.2001ZM146.801 2.92137C148.768 2.39446 150.138 2.62673 151.106 3.35497L152.308 1.75672C150.683 0.534119 148.61 0.366122 146.284 0.989519L146.801 2.92137ZM151.106 3.35497C152.303 4.25577 152.909 5.10971 153.118 5.88767L155.049 5.37003C154.683 4.00149 153.704 2.80676 152.308 1.75672L151.106 3.35497ZM153.118 5.88767C153.59 7.65159 153.074 10.214 151.184 13.7186L152.945 14.6678C154.897 11.0463 155.727 7.89911 155.049 5.37003L153.118 5.88767ZM151.18 13.7275C149.351 17.2027 146.994 20.6319 144.103 24.0142L145.623 25.3138C148.599 21.8324 151.044 18.281 152.95 14.6589L151.18 13.7275ZM144.109 24.0064C141.18 27.3624 138.236 30.4342 135.277 33.2227L136.649 34.6783C139.659 31.8412 142.648 28.722 145.616 25.3215L144.109 24.0064ZM135.281 33.2189C132.345 35.9549 130.093 37.7821 128.503 38.7523L129.544 40.4596C131.316 39.3788 133.69 37.4356 136.645 34.6821L135.281 33.2189ZM147.687 7.5153C147.251 7.63215 146.845 7.91758 146.496 8.21568C146.125 8.53255 145.718 8.95272 145.278 9.45974C144.396 10.4754 143.317 11.9145 142.046 13.7605L143.693 14.8948C144.948 13.0732 145.978 11.7042 146.788 10.771C147.194 10.3036 147.529 9.96423 147.795 9.73639C148.084 9.48977 148.212 9.44532 148.205 9.44715L147.687 7.5153ZM142.041 13.7672C139.555 17.4412 137.291 21.0866 135.248 24.7034L136.99 25.6869C139.004 22.1201 141.24 18.5205 143.698 14.8881L142.041 13.7672ZM135.253 24.6952L132.189 30.0024L133.921 31.0024L136.985 25.6952L135.253 24.6952ZM132.189 30.0024C132.009 30.313 131.861 30.6252 131.77 30.9296C131.682 31.2237 131.622 31.5967 131.725 31.9802L133.657 31.4625C133.688 31.5777 133.653 31.6133 133.686 31.5012C133.717 31.3993 133.786 31.2361 133.921 31.0024L132.189 30.0024ZM131.725 31.9802C131.792 32.228 131.934 32.4618 132.157 32.6367C132.367 32.8021 132.596 32.8729 132.781 32.9021C133.126 32.9564 133.478 32.891 133.761 32.8151L133.243 30.8833C133.156 30.9067 133.098 30.9168 133.065 30.9206C133.029 30.9247 133.044 30.9188 133.093 30.9265C133.143 30.9344 133.263 30.9624 133.392 31.0635C133.533 31.1741 133.619 31.322 133.657 31.4625L131.725 31.9802ZM133.761 32.8151C135.146 32.444 136.634 31.1979 138.209 29.3994C139.823 27.5572 141.664 24.9732 143.731 21.67L142.035 20.6092C139.995 23.8706 138.218 26.3539 136.705 28.0815C135.153 29.8528 134.005 30.6793 133.243 30.8833L133.761 32.8151ZM143.731 21.67C145.795 18.3713 147.307 15.6482 148.247 13.5136C148.716 12.4469 149.055 11.5008 149.245 10.686C149.43 9.89062 149.498 9.1204 149.32 8.45811L147.388 8.97574C147.441 9.17205 147.453 9.5634 147.297 10.2326C147.146 10.8823 146.858 11.7037 146.416 12.7074C145.533 14.7137 144.079 17.3434 142.035 20.6092L143.731 21.67ZM149.32 8.45811C149.252 8.20189 149.088 7.84965 148.709 7.63099C148.33 7.41232 147.943 7.44664 147.687 7.5153L148.205 9.44715C148.163 9.45829 147.952 9.50313 147.709 9.36304C147.466 9.22294 147.399 9.01731 147.388 8.97574L149.32 8.45811ZM155.71 34.0945L155.969 35.0604L156.018 35.0472L156.066 35.0291L155.71 34.0945ZM159.547 32.6351L159.288 31.6692L159.239 31.6824L159.191 31.7005L159.547 32.6351ZM161.223 38.5701L161.974 39.2303L161.974 39.2303L161.223 38.5701ZM156.714 43.3154L157.404 44.0395L157.411 44.0324L156.714 43.3154ZM156.144 46.6604L156.281 47.6509L156.343 47.6424L156.403 47.6263L156.144 46.6604ZM165.642 39.2841L164.938 38.5739L164.938 38.5739L165.642 39.2841ZM174.315 33.3368L175.302 33.1754L175.293 33.1261L175.281 33.078L174.315 33.3368ZM170.241 38.7418L170.975 39.4217L170.978 39.4186L170.241 38.7418ZM160.129 48.0083L160.75 48.7915L160.755 48.788L160.129 48.0083ZM144.815 44.9508L143.989 44.3882L143.984 44.3954L143.979 44.4027L144.815 44.9508ZM148.476 40.2602L147.747 39.576L147.741 39.5818L147.736 39.5876L148.476 40.2602ZM148.972 37.2804L148.829 38.2701L148.829 38.2701L148.972 37.2804ZM149.755 23.7843L150.441 24.5125L150.444 24.5099L149.755 23.7843ZM168.904 15.7202L168.639 16.6844L168.651 16.6878L168.664 16.691L168.904 15.7202ZM169.871 25.1237L169.143 24.4376L169.137 24.4447L169.871 25.1237ZM163.89 28.8831L163.57 29.8304L163.602 29.8414L163.636 29.8502L163.89 28.8831ZM165.041 26.4178L165.645 27.2147L165.653 27.2093L165.66 27.2037L165.041 26.4178ZM158.629 28.5673L159.219 29.3745L159.228 29.368L158.629 28.5673ZM156.066 35.0291L159.902 33.5698L159.191 31.7005L155.355 33.1598L156.066 35.0291ZM159.805 33.6011C160.569 33.3965 161.015 33.4808 161.282 33.6354C161.55 33.7899 161.846 34.1341 162.051 34.8974L163.983 34.3798C163.698 33.3186 163.171 32.4166 162.282 31.9033C161.393 31.39 160.349 31.3849 159.288 31.6692L159.805 33.6011ZM162.051 34.8974C162.098 35.0755 162.097 35.396 161.853 35.9309C161.61 36.4632 161.165 37.1214 160.472 37.91L161.974 39.2303C162.736 38.3638 163.317 37.5392 163.672 36.761C164.026 35.9854 164.194 35.1676 163.983 34.3798L162.051 34.8974ZM160.472 37.91C159.034 39.5458 157.549 41.1086 156.017 42.5985L157.411 44.0324C158.982 42.5054 160.503 40.9046 161.974 39.2303L160.472 37.91ZM156.025 42.5914C155.25 43.3297 154.644 43.9915 154.245 44.5681C154.045 44.8563 153.874 45.1561 153.767 45.4599C153.661 45.7584 153.589 46.1398 153.696 46.5398L155.628 46.0222C155.663 46.1539 155.623 46.2106 155.652 46.1278C155.679 46.0503 155.747 45.9123 155.889 45.7062C156.175 45.2943 156.667 44.7416 157.404 44.0395L156.025 42.5914ZM153.696 46.5398C153.869 47.1859 154.388 47.5056 154.86 47.6264C155.294 47.7374 155.791 47.7187 156.281 47.6509L156.007 45.6698C155.819 45.6959 155.669 45.706 155.555 45.7057C155.438 45.7054 155.377 45.6941 155.356 45.6888C155.335 45.6835 155.385 45.6921 155.456 45.752C155.538 45.8208 155.6 45.9188 155.628 46.0222L153.696 46.5398ZM156.403 47.6263C157.546 47.3198 158.94 46.4714 160.54 45.2287C162.168 43.9649 164.104 42.2159 166.346 39.9944L164.938 38.5739C162.726 40.7666 160.852 42.4541 159.314 43.6491C157.748 44.8651 156.62 45.4976 155.885 45.6944L156.403 47.6263ZM166.346 39.9944C168.571 37.7892 170.279 36.1295 171.476 35.0109C172.075 34.4504 172.537 34.0341 172.867 33.7555C173.033 33.6152 173.154 33.5198 173.235 33.4612C173.254 33.4472 173.27 33.4367 173.281 33.4292C173.292 33.4215 173.298 33.4183 173.298 33.4183C173.298 33.4184 173.295 33.4198 173.291 33.4222C173.286 33.4245 173.279 33.4284 173.268 33.4333C173.252 33.4412 173.208 33.4608 173.145 33.4777L172.627 31.5459C172.471 31.5876 172.347 31.6575 172.285 31.6936C172.209 31.7385 172.133 31.7897 172.064 31.8402C171.923 31.9415 171.759 32.0735 171.576 32.2279C171.208 32.5388 170.718 32.9817 170.11 33.5499C168.892 34.6887 167.167 36.3648 164.938 38.5739L166.346 39.9944ZM173.145 33.4777C173.255 33.4482 173.316 33.447 173.338 33.4483C173.355 33.4494 173.337 33.4507 173.306 33.4331C173.276 33.4155 173.268 33.3994 173.278 33.4136C173.29 33.4321 173.319 33.4854 173.349 33.5956L175.281 33.078C175.14 32.5534 174.855 32.0179 174.306 31.7011C173.758 31.3842 173.152 31.4053 172.627 31.5459L173.145 33.4777ZM173.328 33.4982C173.303 33.3456 173.34 33.2607 173.327 33.3018C173.318 33.3285 173.292 33.3952 173.23 33.5102C173.107 33.7398 172.892 34.066 172.565 34.4995C171.916 35.3613 170.901 36.5466 169.505 38.0651L170.978 39.4186C172.388 37.8847 173.454 36.643 174.163 35.7031C174.515 35.2357 174.798 34.8174 174.991 34.4589C175.088 34.2798 175.175 34.0915 175.234 33.9023C175.289 33.7275 175.349 33.4657 175.302 33.1754L173.328 33.4982ZM169.508 38.062C166.782 41.0029 163.449 44.0587 159.502 47.2287L160.755 48.788C164.759 45.5713 168.168 42.4495 170.975 39.4216L169.508 38.062ZM159.507 47.2252C155.588 50.3364 152.575 52.103 150.423 52.6794L150.941 54.6112C153.512 53.9222 156.796 51.9309 160.75 48.7915L159.507 47.2252ZM150.423 52.6794C148.735 53.1317 147.524 52.9805 146.647 52.4408C145.758 51.8935 145.008 50.8216 144.52 48.9986L142.588 49.5163C143.149 51.6107 144.112 53.2287 145.599 54.144C147.098 55.0669 148.927 55.151 150.941 54.6112L150.423 52.6794ZM144.52 48.9986C144.332 48.299 144.55 47.1798 145.652 45.499L143.979 44.4027C142.794 46.2102 142.171 47.962 142.588 49.5163L144.52 48.9986ZM145.642 45.5134C146.816 43.7879 148.008 42.262 149.216 40.9327L147.736 39.5876C146.457 40.9954 145.208 42.5966 143.989 44.3882L145.642 45.5134ZM149.205 40.9444C149.86 40.2462 150.365 39.6738 150.704 39.237C150.871 39.0219 151.02 38.8121 151.126 38.6196C151.179 38.5244 151.239 38.4036 151.281 38.2679C151.316 38.1543 151.381 37.9013 151.302 37.605L149.37 38.1227C149.305 37.8801 149.363 37.699 149.371 37.6755C149.385 37.63 149.395 37.6176 149.378 37.6491C149.344 37.71 149.267 37.8265 149.124 38.0108C148.843 38.3728 148.389 38.8913 147.747 39.576L149.205 40.9444ZM151.302 37.605C151.142 37.0079 150.634 36.7254 150.334 36.5973C149.99 36.45 149.568 36.3559 149.114 36.2906L148.829 38.2701C149.214 38.3255 149.437 38.389 149.548 38.4362C149.601 38.4589 149.589 38.4618 149.55 38.4276C149.506 38.3892 149.415 38.2907 149.37 38.1227L151.302 37.605ZM149.114 36.2906C146.761 35.9516 145.799 35.0998 145.522 34.0637L143.59 34.5813C144.175 36.765 146.157 37.8851 148.829 38.2701L149.114 36.2906ZM145.522 34.0637C144.873 31.6437 146.202 28.5019 150.441 24.5125L149.07 23.0561C144.766 27.1075 142.628 30.9912 143.59 34.5813L145.522 34.0637ZM150.444 24.5099C154.673 20.499 158.833 17.9873 162.92 16.8922L162.403 14.9603C157.904 16.1658 153.46 18.8928 149.067 23.0587L150.444 24.5099ZM162.92 16.8922C165.161 16.2917 167.055 16.2487 168.639 16.6844L169.169 14.756C167.152 14.2012 164.884 14.2955 162.403 14.9603L162.92 16.8922ZM168.664 16.691C169.407 16.8747 169.969 17.189 170.391 17.6097C170.815 18.0315 171.144 18.6059 171.351 19.3782L173.283 18.8606C173.001 17.8084 172.517 16.904 171.803 16.1927C171.087 15.4803 170.187 15.0073 169.144 14.7494L168.664 16.691ZM171.351 19.3782C171.688 20.6345 171.175 22.2839 169.143 24.4376L170.598 25.8099C172.777 23.4995 173.895 21.146 173.283 18.8606L171.351 19.3782ZM169.137 24.4447C168.13 25.5334 167.263 26.3622 166.535 26.9462C165.789 27.5443 165.26 27.8258 164.925 27.9156L165.443 29.8475C166.181 29.6497 166.97 29.1611 167.786 28.5066C168.62 27.838 169.561 26.9317 170.605 25.8028L169.137 24.4447ZM164.925 27.9156C164.665 27.9852 164.411 27.9861 164.145 27.916L163.636 29.8502C164.236 30.0081 164.844 30.0079 165.443 29.8475L164.925 27.9156ZM164.211 27.9358C164.161 27.9189 164.128 27.9039 164.109 27.8937C164.091 27.8837 164.089 27.8802 164.096 27.8869C164.105 27.8942 164.121 27.9109 164.139 27.9385C164.157 27.9666 164.171 27.998 164.179 28.0292L162.247 28.5469C162.44 29.2663 163.024 29.6458 163.57 29.8304L164.211 27.9358ZM164.179 28.0292C164.272 28.377 164.106 28.5985 164.143 28.5365C164.153 28.5207 164.202 28.4506 164.331 28.3183C164.584 28.06 165.012 27.6948 165.645 27.2147L164.437 25.6209C163.78 26.1193 163.258 26.5551 162.901 26.9202C162.726 27.0997 162.555 27.2969 162.43 27.504C162.333 27.6649 162.118 28.065 162.247 28.5469L164.179 28.0292ZM165.66 27.2037C166.352 26.6589 166.911 26.1365 167.284 25.6388C167.627 25.1802 167.982 24.5155 167.787 23.7842L165.855 24.3019C165.803 24.1072 165.933 24.1066 165.683 24.4396C165.463 24.7335 165.061 25.1302 164.423 25.6319L165.66 27.2037ZM167.787 23.7842C167.579 23.0084 166.854 22.8453 166.498 22.8239C166.114 22.8008 165.677 22.8828 165.247 22.9982L165.764 24.93C165.94 24.8828 166.081 24.853 166.191 24.8363C166.304 24.8191 166.362 24.8193 166.378 24.8203C166.402 24.8217 166.318 24.8227 166.198 24.7532C166.132 24.7153 166.057 24.657 165.991 24.5722C165.923 24.4864 165.879 24.3924 165.855 24.3019L167.787 23.7842ZM165.247 22.9982C164.924 23.0846 164.543 23.2764 164.158 23.4964C163.748 23.7299 163.25 24.0446 162.667 24.4349C161.499 25.2163 159.952 26.3288 158.03 27.7666L159.228 29.368C161.139 27.9384 162.654 26.8498 163.779 26.0969C164.342 25.7199 164.797 25.4341 165.148 25.2337C165.523 25.0198 165.711 24.9443 165.764 24.93L165.247 22.9982ZM158.039 27.7602C156.105 29.1748 154.643 30.3483 153.679 31.2729C153.201 31.7316 152.81 32.1622 152.546 32.5564C152.413 32.754 152.291 32.9742 152.213 33.2101C152.136 33.4438 152.082 33.7564 152.173 34.0933L154.105 33.5757C154.126 33.6572 154.128 33.7252 154.124 33.7696C154.121 33.8127 154.113 33.8364 154.113 33.8365C154.113 33.837 154.117 33.8227 154.133 33.7921C154.149 33.7619 154.173 33.7212 154.207 33.6694C154.354 33.4503 154.626 33.1353 155.063 32.7161C155.93 31.885 157.306 30.7737 159.219 29.3745L158.039 27.7602ZM152.173 34.0933C152.275 34.4752 152.504 34.7952 152.834 35.0148C153.141 35.2196 153.486 35.3054 153.8 35.3371C154.412 35.3991 155.157 35.2778 155.969 35.0604L155.451 33.1285C154.707 33.3281 154.245 33.372 154.001 33.3473C153.886 33.3357 153.89 33.3152 153.943 33.3508C154.019 33.4011 154.081 33.489 154.105 33.5757L152.173 34.0933ZM195.839 37.2318L195.823 38.2317L195.963 38.234L196.098 38.1977L195.839 37.2318ZM199.099 33.9427L199.858 34.5944L199.861 34.5905L199.099 33.9427ZM202.192 30.3532L201.529 29.605L201.5 29.6305L201.473 29.6581L202.192 30.3532ZM199.999 36.9799L199.257 36.31L199.253 36.3148L199.999 36.9799ZM190.714 42.5737L190.33 43.4971L190.347 43.5039L190.363 43.5102L190.714 42.5737ZM189.088 38.437L188.099 38.2869L188.099 38.2869L189.088 38.437ZM188.388 36.4677L187.637 35.8076L187.618 35.8291L187.6 35.8516L188.388 36.4677ZM174.742 44.783L174.144 45.5846L174.144 45.5846L174.742 44.783ZM172.473 42.1124L171.54 42.4709L171.549 42.4951L171.559 42.5187L172.473 42.1124ZM171.902 40.6262L170.936 40.885L170.95 40.9357L170.969 40.9847L171.902 40.6262ZM172.275 33.9694L171.312 33.7009L171.31 33.7077L172.275 33.9694ZM175.878 25.8434L176.732 26.3649L176.732 26.3644L175.878 25.8434ZM182.644 18.2503L182.016 17.4718L182.011 17.4757L182.644 18.2503ZM197.502 13.4926L197.212 14.4498L197.22 14.452L197.227 14.4541L197.502 13.4926ZM197.665 19.5744L197.305 18.6412L197.25 18.6626L197.197 18.6904L197.665 19.5744ZM189.579 26.7449L190.304 27.4334L190.306 27.4309L189.579 26.7449ZM192.216 28.54L191.426 27.9276L191.422 27.9327L192.216 28.54ZM199.561 25.3641L198.654 24.9446L198.65 24.9528L199.561 25.3641ZM198.86 26.9324L197.944 26.5311L197.944 26.5311L198.86 26.9324ZM196.53 31.4389L197.404 31.926L197.407 31.9196L197.411 31.9133L196.53 31.4389ZM194.159 37.0782C194.263 37.4656 194.506 37.7869 194.858 37.9897C195.177 38.1742 195.525 38.2268 195.823 38.2317L195.856 36.2319C195.749 36.2302 195.776 36.2107 195.858 36.2577C195.903 36.2842 195.957 36.3269 196.005 36.3889C196.052 36.4508 196.078 36.5126 196.091 36.5605L194.159 37.0782ZM196.098 38.1977C196.423 38.1108 196.709 37.8896 196.888 37.7434C197.109 37.5625 197.364 37.3234 197.646 37.038C198.214 36.4648 198.953 35.6468 199.858 34.5944L198.341 33.291C197.447 34.3307 196.744 35.1069 196.226 35.6301C195.965 35.8929 195.766 36.0775 195.621 36.1958C195.434 36.3489 195.444 36.3025 195.581 36.2659L196.098 38.1977ZM199.861 34.5905C201.715 32.4105 202.715 31.2512 202.911 31.0483L201.473 29.6581C201.219 29.921 200.157 31.1546 198.337 33.2949L199.861 34.5905ZM202.856 31.1014C203.056 30.9236 203.196 30.8608 203.272 30.8404L202.754 28.9085C202.294 29.0319 201.886 29.2883 201.529 29.605L202.856 31.1014ZM203.272 30.8404C203.382 30.8109 203.443 30.8097 203.465 30.811C203.482 30.812 203.464 30.8134 203.434 30.7958C203.403 30.7781 203.395 30.7621 203.405 30.7763C203.417 30.7947 203.446 30.848 203.476 30.9582L205.408 30.4406C205.267 29.9161 204.982 29.3806 204.434 29.0637C203.885 28.7468 203.279 28.768 202.754 28.9085L203.272 30.8404ZM203.476 30.9582C203.443 30.834 203.467 30.7677 203.457 30.8118C203.449 30.8484 203.424 30.9293 203.362 31.0638C203.237 31.3335 203.01 31.7133 202.655 32.2153C201.949 33.2136 200.823 34.5748 199.257 36.31L200.742 37.6498C202.325 35.8956 203.513 34.4654 204.288 33.3702C204.673 32.8254 204.978 32.333 205.177 31.905C205.276 31.6905 205.361 31.4662 205.41 31.2411C205.458 31.0236 205.488 30.7392 205.408 30.4406L203.476 30.9582ZM199.253 36.3148C197.722 38.0329 196.403 39.3489 195.292 40.2787C194.16 41.2265 193.326 41.7013 192.764 41.852L193.281 43.7838C194.275 43.5174 195.383 42.8108 196.576 41.8126C197.79 40.7964 199.181 39.4019 200.746 37.645L199.253 36.3148ZM192.764 41.852C192.391 41.9517 191.846 41.93 191.065 41.6373L190.363 43.5102C191.372 43.8881 192.366 44.0291 193.281 43.7838L192.764 41.852ZM191.098 41.6503C190.461 41.3854 190.223 41.0647 190.137 40.7439L188.206 41.2616C188.494 42.336 189.285 43.0626 190.33 43.4971L191.098 41.6503ZM190.137 40.7439C189.98 40.1545 189.947 39.4426 190.077 38.587L188.099 38.2869C187.938 39.3498 187.961 40.3484 188.206 41.2616L190.137 40.7439ZM190.077 38.587C190.152 38.0924 190.202 37.6662 190.223 37.3171C190.242 37.0009 190.246 36.6395 190.164 36.3368L188.233 36.8544C188.223 36.82 188.244 36.8996 188.227 37.1973C188.211 37.462 188.17 37.8222 188.099 38.2869L190.077 38.587ZM190.164 36.3368C190.108 36.1265 190.006 35.8306 189.789 35.5861C189.67 35.452 189.497 35.3117 189.262 35.232C189.019 35.1498 188.778 35.1553 188.569 35.2114L189.086 37.1433C188.958 37.1778 188.792 37.1845 188.621 37.1265C188.456 37.0708 188.35 36.9774 188.293 36.913C188.2 36.8079 188.203 36.7428 188.233 36.8544L190.164 36.3368ZM188.569 35.2114C188.181 35.3152 187.872 35.5392 187.637 35.8076L189.139 37.1279C189.154 37.1103 189.158 37.1099 189.148 37.1168C189.136 37.1244 189.115 37.1355 189.086 37.1433L188.569 35.2114ZM187.6 35.8516C185.542 38.4827 183.715 40.5088 182.117 41.9493C180.503 43.4047 179.2 44.1923 178.193 44.4621L178.71 46.394C180.172 46.0024 181.759 44.9658 183.457 43.4345C185.171 41.8882 187.078 39.7649 189.175 37.0839L187.6 35.8516ZM178.193 44.4621C177.068 44.7635 176.152 44.5872 175.339 43.9813L174.144 45.5846C175.487 46.5865 177.045 46.8403 178.71 46.394L178.193 44.4621ZM175.339 43.9813C174.364 43.2538 173.736 42.4904 173.387 41.7061L171.559 42.5187C172.079 43.6874 172.963 44.7043 174.144 45.5846L175.339 43.9813ZM173.407 41.7539L172.836 40.2677L170.969 40.9847L171.54 42.4709L173.407 41.7539ZM172.868 40.3674C172.457 38.8323 172.542 36.8077 173.241 34.2312L171.31 33.7077C170.563 36.4652 170.399 38.8783 170.936 40.885L172.868 40.3674ZM173.239 34.238C173.974 31.6009 175.135 28.9768 176.732 26.3649L175.025 25.3219C173.343 28.0747 172.102 30.8679 171.312 33.7009L173.239 34.238ZM176.732 26.3644C178.344 23.7224 180.52 21.2746 183.276 19.025L182.011 17.4757C179.104 19.8493 176.77 22.4635 175.025 25.3224L176.732 26.3644ZM183.271 19.0289C186.054 16.7851 189.063 15.2362 192.301 14.3685L191.784 12.4366C188.261 13.3807 185.003 15.0636 182.016 17.4718L183.271 19.0289ZM192.301 14.3685C193.945 13.928 195.575 13.9546 197.212 14.4498L197.791 12.5355C195.799 11.9328 193.789 11.8993 191.784 12.4366L192.301 14.3685ZM197.227 14.4541C198.927 14.9403 199.64 15.6773 199.857 16.4851L201.789 15.9675C201.315 14.1995 199.815 13.1141 197.777 12.5312L197.227 14.4541ZM199.857 16.4851C199.925 16.7385 199.895 16.9926 199.565 17.3431C199.189 17.7409 198.477 18.1898 197.305 18.6412L198.024 20.5075C199.303 20.0147 200.342 19.4337 201.019 18.7154C201.741 17.9499 202.066 17.002 201.789 15.9675L199.857 16.4851ZM197.197 18.6904C195.268 19.7108 192.469 22.2214 188.851 26.0589L190.306 27.4309C193.944 23.5728 196.535 21.3031 198.132 20.4583L197.197 18.6904ZM188.853 26.0564C187.04 27.9661 185.688 29.6148 184.832 30.9927C184.404 31.682 184.081 32.3343 183.892 32.9416C183.706 33.544 183.631 34.1715 183.791 34.7662L185.723 34.2486C185.695 34.1457 185.681 33.9266 185.803 33.5333C185.923 33.1449 186.156 32.6525 186.531 32.048C187.283 30.8385 188.528 29.3035 190.304 27.4334L188.853 26.0564ZM183.791 34.7662C183.91 35.2103 184.158 35.6908 184.656 35.9782C185.154 36.2656 185.694 36.2405 186.138 36.1215L185.621 34.1897C185.551 34.2084 185.526 34.2052 185.537 34.2058C185.544 34.2062 185.559 34.2079 185.581 34.2142C185.604 34.2207 185.63 34.231 185.656 34.2461C185.682 34.2613 185.704 34.2783 185.721 34.2947C185.737 34.3108 185.747 34.3236 185.75 34.329C185.756 34.338 185.741 34.3186 185.723 34.2486L183.791 34.7662ZM186.138 36.1215C186.603 35.997 187.064 35.7055 187.495 35.3679C187.945 35.0162 188.444 34.548 188.991 33.9778C190.084 32.8363 191.426 31.2209 193.011 29.1473L191.422 27.9327C189.855 29.982 188.565 31.5306 187.546 32.5943C187.036 33.1266 186.61 33.5213 186.263 33.7928C185.898 34.0784 185.692 34.1704 185.621 34.1897L186.138 36.1215ZM193.007 29.1525C194.603 27.0921 195.885 25.5397 196.859 24.4824C197.348 23.9526 197.743 23.5637 198.051 23.3016C198.394 23.0094 198.523 22.9678 198.49 22.9767L197.973 21.0448C197.537 21.1615 197.114 21.4728 196.754 21.7787C196.36 22.1146 195.903 22.5689 195.388 23.1273C194.357 24.2464 193.035 25.8508 191.426 27.9276L193.007 29.1525ZM198.49 22.9767C198.597 22.9481 198.651 22.951 198.666 22.9527C198.674 22.9537 198.665 22.9528 198.658 22.9475C198.653 22.9444 198.761 23.0223 198.861 23.3949L200.793 22.8773C200.634 22.284 200.347 21.6913 199.81 21.3131C199.237 20.9087 198.575 20.8834 197.973 21.0448L198.49 22.9767ZM198.861 23.3949C198.976 23.8233 198.94 24.3246 198.654 24.9446L200.469 25.7837C200.911 24.8282 201.052 23.8442 200.793 22.8773L198.861 23.3949ZM198.65 24.9528C198.325 25.6728 198.089 26.1999 197.944 26.5311L199.776 27.3337C199.916 27.0133 200.148 26.4948 200.473 25.7755L198.65 24.9528ZM197.944 26.5311C197.678 27.1375 196.924 28.6001 195.65 30.9646L197.411 31.9133C198.672 29.5724 199.471 28.0306 199.776 27.3337L197.944 26.5311ZM195.657 30.9519C194.356 33.2856 193.706 35.3859 194.159 37.0782L196.091 36.5605C195.854 35.6769 196.141 34.1903 197.404 31.926L195.657 30.9519ZM234.648 25.7979L234.907 26.7638L235.087 26.7154L235.238 26.6052L234.648 25.7979ZM236.884 24.1633L236.625 23.1974L236.445 23.2457L236.294 23.356L236.884 24.1633ZM235.844 29.6184L235.16 28.8888L235.15 28.8983L235.14 28.9082L235.844 29.6184ZM224.726 33.2014L225.132 32.2878L225.119 32.2819L225.105 32.2763L224.726 33.2014ZM223.285 22.027L222.419 21.527L222.388 21.5804L222.364 21.6371L223.285 22.027ZM222.586 21.3515L223.337 22.0117L223.337 22.0116L222.586 21.3515ZM219.707 24.4523L218.976 23.7703L218.971 23.7758L219.707 24.4523ZM210.513 34.2491L211.193 34.9817L211.209 34.9672L211.224 34.952L210.513 34.2491ZM205.065 34.8461L205.588 33.9939L205.588 33.9939L205.065 34.8461ZM208.743 17.9863L209.593 18.5137L209.595 18.5097L208.743 17.9863ZM218.751 6.07348L218.622 5.08182L218.556 5.09038L218.492 5.10756L218.751 6.07348ZM221.211 6.8811L220.585 7.66103L220.585 7.66103L221.211 6.8811ZM222.614 13.4069L223.57 13.7018L223.57 13.6993L222.614 13.4069ZM220.773 18.1275L221.639 18.6275L221.639 18.6275L220.773 18.1275ZM220.979 19.5391L221.698 20.2342L221.714 20.2171L221.73 20.1992L220.979 19.5391ZM227.288 12.4995L228.033 13.1674L228.034 13.1654L227.288 12.4995ZM234.016 5.08898L234.706 5.81302L234.731 5.78977L234.753 5.76494L234.016 5.08898ZM238.814 4.32098L238.526 5.2785L238.543 5.28357L238.56 5.28805L238.814 4.32098ZM239.576 12.313L238.685 11.858L238.679 11.8702L239.576 12.313ZM235.238 26.6052L237.474 24.9707L236.294 23.356L234.058 24.9905L235.238 26.6052ZM237.143 25.1293C237.271 25.095 237.353 25.0868 237.398 25.0865C237.441 25.0863 237.432 25.0934 237.396 25.0776C237.377 25.0698 237.356 25.0579 237.335 25.0416C237.314 25.0254 237.297 25.0084 237.286 24.9938C237.264 24.965 237.27 24.959 237.282 25.0056L239.214 24.488C239.077 23.9736 238.758 23.485 238.182 23.2388C237.66 23.0156 237.101 23.0699 236.625 23.1974L237.143 25.1293ZM237.282 25.0056C237.5 25.8158 237.102 27.0689 235.16 28.8888L236.528 30.3481C238.539 28.4629 239.745 26.4683 239.214 24.488L237.282 25.0056ZM235.14 28.9082C233.326 30.7066 231.472 31.8253 229.583 32.3314L230.1 34.2632C232.397 33.6478 234.545 32.3139 236.548 30.3287L235.14 28.9082ZM229.583 32.3314C227.676 32.8422 226.224 32.7736 225.132 32.2878L224.319 34.1151C225.971 34.8499 227.928 34.8452 230.1 34.2632L229.583 32.3314ZM225.105 32.2763C224.117 31.871 223.357 30.9889 222.923 29.3709L220.991 29.8885C221.535 31.9195 222.62 33.4186 224.346 34.1266L225.105 32.2763ZM222.923 29.3709C222.524 27.8811 222.853 25.61 224.205 22.417L222.364 21.6371C220.968 24.9319 220.413 27.7293 220.991 29.8885L222.923 29.3709ZM224.151 22.527C224.27 22.3205 224.377 22.1003 224.446 21.8764C224.51 21.6657 224.571 21.3538 224.48 21.0164L222.549 21.5341C222.524 21.4407 222.525 21.3682 222.528 21.3317C222.531 21.2953 222.537 21.2802 222.533 21.2915C222.53 21.3018 222.521 21.3271 222.502 21.3692C222.483 21.4107 222.456 21.463 222.419 21.527L224.151 22.527ZM224.48 21.0164C224.412 20.7602 224.248 20.408 223.869 20.1893C223.491 19.9707 223.104 20.005 222.847 20.0736L223.365 22.0055C223.324 22.0166 223.112 22.0615 222.869 21.9214C222.627 21.7813 222.56 21.5756 222.549 21.5341L224.48 21.0164ZM222.847 20.0736C222.464 20.1764 222.111 20.3766 221.835 20.6914L223.337 22.0116C223.336 22.0127 223.335 22.0143 223.333 22.0159C223.331 22.0176 223.329 22.0184 223.329 22.0183C223.33 22.0183 223.332 22.0169 223.337 22.0147C223.343 22.0124 223.352 22.0091 223.365 22.0055L222.847 20.0736ZM221.835 20.6914C221.715 20.8273 220.772 21.8432 218.976 23.7704L220.438 25.1342C222.216 23.2279 223.192 22.1767 223.337 22.0117L221.835 20.6914ZM218.971 23.7758C214.696 28.4295 211.642 31.6831 209.801 33.5463L211.224 34.952C213.093 33.0602 216.169 29.7826 220.444 25.1287L218.971 23.7758ZM209.832 33.5165C209.136 34.1634 208.481 34.5346 207.872 34.6978L208.39 36.6297C209.391 36.3615 210.324 35.7896 211.193 34.9817L209.832 33.5165ZM207.872 34.6978C207.473 34.8048 206.756 34.711 205.588 33.9939L204.542 35.6983C205.852 36.5028 207.179 36.9541 208.39 36.6297L207.872 34.6978ZM205.588 33.9939C204.484 33.3158 203.948 32.6086 203.762 31.9168L201.831 32.4344C202.192 33.7817 203.168 34.8549 204.542 35.6983L205.588 33.9939ZM203.762 31.9168C203.675 31.5923 203.663 31.0683 203.824 30.2818C203.983 29.5078 204.293 28.5521 204.774 27.4049C205.736 25.1105 207.335 22.151 209.593 18.5137L207.894 17.4589C205.612 21.1346 203.95 24.1965 202.93 26.6318C202.419 27.8495 202.058 28.9358 201.865 29.8809C201.674 30.8135 201.63 31.6856 201.831 32.4344L203.762 31.9168ZM209.595 18.5097C211.847 14.8446 213.783 12.0574 215.405 10.1263C216.216 9.1607 216.933 8.42834 217.556 7.91133C218.19 7.3859 218.671 7.13012 219.01 7.03941L218.492 5.10756C217.758 5.30442 217.017 5.76069 216.28 6.37178C215.533 6.99129 214.73 7.81992 213.874 8.83981C212.16 10.8796 210.165 13.7612 207.891 17.4628L209.595 18.5097ZM218.88 7.06514C219.384 6.99962 219.939 7.14288 220.585 7.66103L221.836 6.10118C220.87 5.32578 219.785 4.93063 218.622 5.08182L218.88 7.06514ZM220.585 7.66103C221.204 8.1578 221.652 8.8513 221.907 9.80045L223.838 9.28281C223.489 7.97813 222.829 6.89795 221.836 6.10118L220.585 7.66103ZM221.907 9.80045C222.129 10.6324 222.084 11.7191 221.658 13.1144L223.57 13.6993C224.063 12.0874 224.191 10.5974 223.838 9.28281L221.907 9.80045ZM221.659 13.112C220.985 15.2948 220.398 16.7777 219.907 17.6275L221.639 18.6275C222.248 17.5722 222.889 15.908 223.57 13.7018L221.659 13.112ZM219.907 17.6275C219.643 18.0851 219.434 18.4875 219.296 18.822C219.227 18.9884 219.165 19.1636 219.127 19.3365C219.094 19.4864 219.051 19.7495 219.127 20.0351L221.059 19.5175C221.107 19.6958 221.071 19.8098 221.08 19.7685C221.084 19.7504 221.1 19.6927 221.145 19.5843C221.233 19.3692 221.393 19.0545 221.639 18.6275L219.907 17.6275ZM219.127 20.0351C219.189 20.2645 219.341 20.5984 219.702 20.8073C220.064 21.0161 220.429 20.9805 220.658 20.919L220.141 18.9872C220.209 18.9688 220.443 18.9253 220.702 19.0752C220.962 19.2251 221.041 19.4491 221.059 19.5175L219.127 20.0351ZM220.658 20.919C221.094 20.8024 221.445 20.4953 221.698 20.2342L220.26 18.844C220.175 18.9314 220.117 18.98 220.084 19.0037C220.068 19.0149 220.064 19.0163 220.071 19.0127C220.078 19.0092 220.101 18.9977 220.141 18.9872L220.658 20.919ZM221.73 20.1992C221.99 19.9035 224.087 17.5635 228.033 13.1674L226.544 11.8315C222.606 16.2198 220.497 18.5728 220.228 18.8789L221.73 20.1992ZM228.034 13.1654C232.038 8.68083 234.24 6.25674 234.706 5.81302L233.327 4.36493C232.784 4.88149 230.502 7.39773 226.542 11.8335L228.034 13.1654ZM234.753 5.76494C235.115 5.37084 235.543 5.11135 236.056 4.97381L235.538 3.04195C234.657 3.27826 233.897 3.7395 233.279 4.41301L234.753 5.76494ZM236.056 4.97381C236.475 4.86168 237.256 4.89588 238.526 5.2785L239.103 3.36345C237.746 2.95477 236.515 2.78024 235.538 3.04195L236.056 4.97381ZM238.56 5.28805C239.575 5.55532 240.057 6.06162 240.251 6.78316L242.182 6.26552C241.772 4.73323 240.652 3.77063 239.069 3.35391L238.56 5.28805ZM240.251 6.78316C240.332 7.08801 240.326 7.64322 240.071 8.54394C239.822 9.422 239.367 10.523 238.685 11.858L240.466 12.768C241.18 11.3708 241.697 10.1409 241.995 9.08943C242.287 8.0606 242.403 7.08759 242.182 6.26552L240.251 6.78316ZM238.679 11.8702C237.344 14.573 235.961 17.2023 234.531 19.7581L236.276 20.7349C237.724 18.1483 239.122 15.4886 240.472 12.7558L238.679 11.8702ZM234.531 19.7581C233.798 21.067 233.257 22.1946 232.928 23.1286C232.616 24.0133 232.425 24.9076 232.624 25.65L234.556 25.1324C234.525 25.0161 234.521 24.6237 234.814 23.7935C235.089 23.0126 235.569 21.9972 236.276 20.7349L234.531 19.7581ZM232.624 25.65C232.748 26.1117 233.052 26.5444 233.582 26.7482C234.044 26.9258 234.523 26.8666 234.907 26.7638L234.389 24.8319C234.297 24.8566 234.245 24.8612 234.226 24.8617C234.207 24.8622 234.239 24.8583 234.299 24.8814C234.366 24.9072 234.436 24.9546 234.491 25.0203C234.541 25.0814 234.555 25.1297 234.556 25.1324L232.624 25.65Z" fill="black"/>
</svg>
