<svg width="111" height="19" viewBox="0 0 111 19" fill="none" xmlns="http://www.w3.org/2000/svg">
<path d="M0.584 18V4.752H4.04V8.208C4.536 5.616 5.976 4.32 8.36 4.32H8.552C10.552 4.32 11.888 5.24 12.56 7.08C13.232 5.24 14.568 4.32 16.568 4.32H16.76C18.232 4.32 19.368 4.832 20.168 5.856C20.968 6.88 21.368 8.416 21.368 10.464V18H17V10.344C17 9.736 16.832 9.232 16.496 8.832C16.176 8.416 15.712 8.208 15.104 8.208C14.496 8.208 14.016 8.416 13.664 8.832C13.328 9.232 13.16 9.752 13.16 10.392V18H8.792V10.344C8.792 9.736 8.624 9.232 8.288 8.832C7.968 8.416 7.504 8.208 6.896 8.208C6.288 8.208 5.808 8.416 5.456 8.832C5.12 9.232 4.952 9.752 4.952 10.392V18H0.584ZM28.1188 18.336C26.7108 18.336 25.5588 17.968 24.6628 17.232C23.7828 16.48 23.3428 15.44 23.3428 14.112C23.3428 13.12 23.6068 12.32 24.1348 11.712C24.6628 11.088 25.3908 10.632 26.3188 10.344C27.2468 10.056 28.3108 9.912 29.5108 9.912H31.5988C31.5828 9.304 31.4308 8.864 31.1428 8.592C30.8708 8.304 30.4228 8.16 29.7988 8.16C29.4948 8.16 29.0468 8.168 28.4548 8.184C27.8628 8.2 27.2388 8.224 26.5828 8.256C25.9268 8.288 25.3268 8.32 24.7828 8.352V4.704C25.1668 4.672 25.6228 4.64 26.1508 4.608C26.6788 4.576 27.2228 4.552 27.7828 4.536C28.3588 4.52 28.8868 4.512 29.3668 4.512C31.4148 4.512 32.9908 4.96 34.0948 5.856C35.2148 6.752 35.7748 8.12 35.7748 9.96V18H32.3188V15.552C32.0308 16.448 31.5348 17.136 30.8308 17.616C30.1268 18.096 29.2228 18.336 28.1188 18.336ZM29.5108 15.408C30.0708 15.408 30.5428 15.248 30.9268 14.928C31.3268 14.592 31.5508 13.984 31.5988 13.104V12.168H29.5108C28.9188 12.168 28.4628 12.32 28.1428 12.624C27.8228 12.912 27.6628 13.304 27.6628 13.8C27.6628 14.28 27.8228 14.672 28.1428 14.976C28.4628 15.264 28.9188 15.408 29.5108 15.408ZM44.7414 18.48C43.5894 18.48 42.5894 18.296 41.7414 17.928C40.8934 17.544 40.1814 17.032 39.6054 16.392C39.0454 15.752 38.6214 15.024 38.3334 14.208C38.0614 13.392 37.9254 12.544 37.9254 11.664V11.184C37.9254 9.952 38.1814 8.816 38.6934 7.776C39.2214 6.72 39.9894 5.872 40.9974 5.232C42.0214 4.592 43.2694 4.272 44.7414 4.272C45.9574 4.272 47.0294 4.512 47.9574 4.992C48.8854 5.472 49.6214 6.136 50.1654 6.984C50.7254 7.816 51.0374 8.776 51.1014 9.864H46.8294C46.7814 9.336 46.5814 8.888 46.2294 8.52C45.8934 8.152 45.3974 7.968 44.7414 7.968C43.9094 7.968 43.2934 8.288 42.8934 8.928C42.4934 9.552 42.2934 10.384 42.2934 11.424C42.2934 12.416 42.4694 13.224 42.8214 13.848C43.1894 14.472 43.8294 14.784 44.7414 14.784C45.4134 14.784 45.9254 14.608 46.2774 14.256C46.6454 13.904 46.8614 13.424 46.9254 12.816H51.1974C51.1334 13.936 50.8134 14.92 50.2374 15.768C49.6774 16.616 48.9254 17.28 47.9814 17.76C47.0374 18.24 45.9574 18.48 44.7414 18.48ZM53.6041 18V3.648H52.1161V0.48H57.9721V18H53.6041ZM67.4094 18.48C66.2894 18.48 65.2974 18.288 64.4334 17.904C63.5694 17.52 62.8414 17 62.2494 16.344C61.6574 15.688 61.2014 14.952 60.8814 14.136C60.5774 13.32 60.4254 12.48 60.4254 11.616V11.136C60.4254 10.24 60.5774 9.384 60.8814 8.568C61.2014 7.736 61.6494 7 62.2254 6.36C62.8174 5.72 63.5374 5.216 64.3854 4.848C65.2334 4.464 66.1934 4.272 67.2654 4.272C68.6894 4.272 69.8974 4.592 70.8894 5.232C71.8814 5.872 72.6414 6.72 73.1694 7.776C73.6974 8.816 73.9614 9.952 73.9614 11.184V12.576H64.5534C64.6974 13.328 65.0014 13.92 65.4654 14.352C65.9294 14.768 66.5774 14.976 67.4094 14.976C68.6254 14.976 69.4014 14.592 69.7374 13.824H73.7214C73.5294 14.72 73.1454 15.52 72.5694 16.224C72.0094 16.928 71.2894 17.48 70.4094 17.88C69.5454 18.28 68.5454 18.48 67.4094 18.48ZM67.2654 7.776C66.5454 7.776 65.9454 7.984 65.4654 8.4C65.0014 8.8 64.6974 9.408 64.5534 10.224H69.8574C69.5854 8.592 68.7214 7.776 67.2654 7.776ZM80.0797 18.336C78.6717 18.336 77.5197 17.968 76.6237 17.232C75.7437 16.48 75.3037 15.44 75.3037 14.112C75.3037 13.12 75.5677 12.32 76.0957 11.712C76.6237 11.088 77.3517 10.632 78.2797 10.344C79.2077 10.056 80.2717 9.912 81.4717 9.912H83.5597C83.5437 9.304 83.3917 8.864 83.1037 8.592C82.8317 8.304 82.3837 8.16 81.7597 8.16C81.4557 8.16 81.0077 8.168 80.4157 8.184C79.8237 8.2 79.1997 8.224 78.5437 8.256C77.8877 8.288 77.2877 8.32 76.7437 8.352V4.704C77.1277 4.672 77.5837 4.64 78.1117 4.608C78.6397 4.576 79.1837 4.552 79.7437 4.536C80.3197 4.52 80.8477 4.512 81.3277 4.512C83.3757 4.512 84.9517 4.96 86.0557 5.856C87.1757 6.752 87.7357 8.12 87.7357 9.96V18H84.2797V15.552C83.9917 16.448 83.4957 17.136 82.7917 17.616C82.0877 18.096 81.1837 18.336 80.0797 18.336ZM81.4717 15.408C82.0317 15.408 82.5037 15.248 82.8877 14.928C83.2877 14.592 83.5117 13.984 83.5597 13.104V12.168H81.4717C80.8797 12.168 80.4237 12.32 80.1037 12.624C79.7837 12.912 79.6237 13.304 79.6237 13.8C79.6237 14.28 79.7837 14.672 80.1037 14.976C80.4237 15.264 80.8797 15.408 81.4717 15.408ZM90.6543 18V4.752H94.1103V8.232C94.3663 6.92 94.8703 5.944 95.6223 5.304C96.3743 4.648 97.3503 4.32 98.5503 4.32H98.7423C100.246 4.32 101.406 4.824 102.222 5.832C103.054 6.824 103.47 8.352 103.47 10.416V18H99.1023V10.296C99.1023 9.688 98.9183 9.192 98.5503 8.808C98.1983 8.408 97.7103 8.208 97.0863 8.208C96.4623 8.208 95.9583 8.408 95.5743 8.808C95.2063 9.192 95.0223 9.704 95.0223 10.344V18H90.6543Z" fill="white"/>
<path d="M105.78 18V13.248H110.484V18H105.78Z" fill="#23CB23"/>
</svg>
