<svg width="24" height="24" viewBox="0 0 24 24" fill="none" xmlns="http://www.w3.org/2000/svg">
<path d="M0 14.7269H0.941V12.2739C0.941 11.7899 1.259 11.4389 1.712 11.4389C2.151 11.4389 2.422 11.7149 2.422 12.1609V14.7269H3.337V12.2499C3.337 11.7699 3.647 11.4379 4.101 11.4379C4.561 11.4379 4.819 11.7179 4.819 12.2079V14.7259H5.759V11.9779C5.759 11.1769 5.242 10.6439 4.452 10.6439C3.874 10.6439 3.398 10.9539 3.205 11.4489H3.182C3.035 10.9349 2.63 10.6439 2.064 10.6439C1.519 10.6439 1.096 10.9499 0.922 11.4149H0.903V10.7199H0V14.7259V14.7269ZM7.82 14.0809C7.412 14.0809 7.14 13.8729 7.14 13.5439C7.14 13.2259 7.4 13.0219 7.854 12.9919L8.78 12.9349V13.2419C8.78 13.7249 8.353 14.0809 7.82 14.0809V14.0809ZM7.536 14.7909C8.05 14.7909 8.553 14.5229 8.784 14.0879H8.802V14.7269H9.71V11.9669C9.71 11.1629 9.063 10.6369 8.07 10.6369C7.049 10.6369 6.41 11.1739 6.369 11.9219H7.242C7.302 11.5899 7.586 11.3739 8.032 11.3739C8.496 11.3739 8.78 11.6159 8.78 12.0359V12.3229L7.722 12.3829C6.746 12.4439 6.198 12.8709 6.198 13.5819C6.198 14.3029 6.762 14.7909 7.536 14.7909V14.7909ZM13.841 12.1489C13.776 11.3059 13.122 10.6369 12.064 10.6369C10.9 10.6369 10.144 11.4419 10.144 12.7239C10.144 14.0239 10.9 14.8059 12.072 14.8059C13.077 14.8059 13.769 14.2159 13.844 13.3209H12.956C12.869 13.7739 12.559 14.0459 12.083 14.0459C11.486 14.0459 11.101 13.5629 11.101 12.7239C11.101 11.8999 11.482 11.4009 12.076 11.4009C12.578 11.4009 12.876 11.7219 12.952 12.1489H13.841V12.1489ZM16.747 9.18188C15.156 9.18188 14.158 10.2669 14.158 12.0019C14.158 13.7369 15.156 14.8179 16.748 14.8179C18.334 14.8179 19.332 13.7369 19.332 12.0019C19.332 10.2669 18.335 9.18188 16.747 9.18188V9.18188ZM16.747 10.0139C17.718 10.0139 18.338 10.7839 18.338 12.0019C18.338 13.2149 17.718 13.9859 16.748 13.9859C15.772 13.9859 15.156 13.2159 15.156 12.0019C15.156 10.7849 15.772 10.0139 16.747 10.0139ZM19.729 13.1919C19.771 14.1979 20.595 14.8179 21.849 14.8179C23.169 14.8179 24 14.1679 24 13.1319C24 12.3189 23.531 11.8619 22.424 11.6089L21.797 11.4649C21.127 11.3069 20.852 11.0949 20.852 10.7319C20.852 10.2789 21.267 9.97588 21.884 9.97588C22.507 9.97588 22.934 10.2819 22.98 10.7929H23.91C23.887 9.83288 23.093 9.18288 21.891 9.18288C20.704 9.18288 19.861 9.83589 19.861 10.8029C19.861 11.5829 20.338 12.0659 21.343 12.2969L22.05 12.4629C22.738 12.6259 23.017 12.8529 23.017 13.2449C23.017 13.6989 22.56 14.0239 21.902 14.0239C21.237 14.0239 20.735 13.6949 20.674 13.1919H19.729V13.1919Z" fill="white"/>
</svg>
