<svg width="24" height="24" viewBox="0 0 24 24" fill="none" xmlns="http://www.w3.org/2000/svg">
<path d="M2.08193 19.4435C4.27016 19.6403 6.24193 19.0893 8.0366 17.7433C6.15928 17.578 4.90381 16.6413 4.20326 14.886C4.81722 14.9608 5.39183 14.9805 6.00186 14.8152C3.97892 14.1855 2.90055 12.8631 2.75493 10.7299C3.36102 11.0133 3.9317 11.218 4.60469 11.2258C3.40432 10.3246 2.79035 9.15568 2.81397 7.68374C2.82577 7.00681 3.00681 6.36923 3.36496 5.76707C5.58861 8.36855 8.379 9.809 11.8148 10.0491C11.7952 9.89952 11.7834 9.78145 11.7676 9.65945C11.4842 7.47909 12.9011 5.49551 15.0657 5.08227C16.4235 4.82251 17.6239 5.18066 18.6393 6.11735C18.7967 6.25903 18.9305 6.29052 19.1273 6.23935C19.9184 6.03863 20.6701 5.74739 21.3982 5.35383C21.1188 6.27477 20.5441 6.96745 19.7649 7.54993C19.942 7.51844 20.123 7.49483 20.3001 7.45941C20.4851 7.42005 20.6701 7.37676 20.8551 7.3256C21.0322 7.27837 21.2053 7.22327 21.3785 7.16423C21.5556 7.1052 21.7327 7.03829 21.9413 7.00287C21.839 7.14456 21.7406 7.29411 21.6304 7.43186C21.1739 8.0104 20.6465 8.5181 20.0679 8.9707C20.0089 9.01793 19.9577 9.12026 19.9617 9.1911C19.9932 10.5883 19.7964 11.95 19.3438 13.2724C18.4543 15.8778 16.9037 17.9873 14.5777 19.4947C13.4285 20.2385 12.173 20.7265 10.8309 21.0099C9.50066 21.2893 8.16254 21.3405 6.82047 21.1831C5.47448 21.0257 4.19539 20.6281 2.99107 20.0063C2.67228 19.845 2.3653 19.6639 2.05438 19.4907C2.06619 19.475 2.07406 19.4593 2.08193 19.4435Z" fill="#7A7A7A"/>
</svg>
