<svg width="55" height="50" viewBox="0 0 55 50" fill="none" xmlns="http://www.w3.org/2000/svg">
<rect width="55" height="50" fill="black"/>
<path d="M13.584 33V19.752H17.04V23.208C17.536 20.616 18.976 19.32 21.36 19.32H21.552C23.552 19.32 24.888 20.24 25.56 22.08C26.232 20.24 27.568 19.32 29.568 19.32H29.76C31.232 19.32 32.368 19.832 33.168 20.856C33.968 21.88 34.368 23.416 34.368 25.464V33H30V25.344C30 24.736 29.832 24.232 29.496 23.832C29.176 23.416 28.712 23.208 28.104 23.208C27.496 23.208 27.016 23.416 26.664 23.832C26.328 24.232 26.16 24.752 26.16 25.392V33H21.792V25.344C21.792 24.736 21.624 24.232 21.288 23.832C20.968 23.416 20.504 23.208 19.896 23.208C19.288 23.208 18.808 23.416 18.456 23.832C18.12 24.232 17.952 24.752 17.952 25.392V33H13.584Z" fill="white"/>
<path d="M36.6788 33V28.248H41.3828V33H36.6788Z" fill="#23CB23"/>
</svg>
