<?xml version="1.0" standalone="no"?>
<!DOCTYPE svg PUBLIC "-//W3C//DTD SVG 20010904//EN"
 "http://www.w3.org/TR/2001/REC-SVG-20010904/DTD/svg10.dtd">
<svg version="1.0" xmlns="http://www.w3.org/2000/svg"
 width="512.000000pt" height="512.000000pt" viewBox="0 0 512.000000 512.000000"
 preserveAspectRatio="xMidYMid meet">
<metadata>
Created by potrace 1.14, written by Peter Selinger 2001-2017
</metadata>
<g transform="translate(0.000000,512.000000) scale(0.100000,-0.100000)"
fill="#000000" stroke="none">
<path d="M1457 3734 c-1 -1 -38 -4 -82 -8 -198 -15 -354 -92 -470 -233 -70
-85 -142 -231 -165 -336 -7 -31 -16 -57 -20 -57 -3 0 -6 125 -6 279 l1 278
-306 0 -306 0 0 -1169 0 -1168 384 0 c210 0 383 3 384 8 0 4 2 324 4 712 1
388 6 719 9 735 20 87 81 179 146 220 87 55 232 67 323 27 89 -40 162 -136
188 -249 7 -32 11 -277 11 -750 l0 -703 384 0 c211 0 384 3 385 8 1 4 2 329 3
722 1 393 5 721 9 727 5 7 10 22 12 33 9 45 52 115 98 156 132 118 369 103
470 -30 38 -49 67 -112 78 -169 6 -31 10 -326 10 -749 l1 -698 386 0 387 0 -1
717 c-2 810 -5 873 -45 1047 -12 50 -26 102 -32 116 -5 14 -11 30 -12 36 -7
28 -60 132 -94 183 -143 210 -347 311 -630 313 -105 1 -140 -2 -235 -18 -56
-9 -165 -53 -219 -87 -109 -70 -186 -160 -254 -297 -23 -47 -43 -79 -43 -72 0
21 -41 104 -85 172 -124 192 -317 292 -588 303 -43 2 -79 2 -80 1z"/>
<path d="M4180 1738 l0 -418 415 0 415 0 0 418 0 419 -415 0 -415 0 0 -419z"/>
</g>
</svg>
